<svg id="Layer_1" enable-background="new 0 0 512 512" viewBox="0 0 512 512" xmlns="http://www.w3.org/2000/svg" width="300" height="300" version="1.1" xmlns:xlink="http://www.w3.org/1999/xlink" xmlns:svgjs="http://svgjs.dev/svgjs"><g width="100%" height="100%" transform="matrix(1,0,0,1,0,0)"><path d="m467.4 72.9c-30.9-39.5-73.7-62.6-120.3-65-12.7-1-24.6 5.4-30.3 16.8-5.8 11.5-4.5 24.9 3.6 35 18.7 23.5 28 53.9 26.4 85.5-1.7 60.5-52 118.1-113.3 114.1-5.5-.3-11-1-16.3-2.2-11.5-2.6-23.4 1.6-31 10.9-7.7 9.5-9.3 22.1-4.3 33.1 29.5 64.3 88.1 105.3 152.7 105.3 161.1-3.1 227.5-216.3 132.8-333.5zm33 142.7c-8.6 179.9-222.5 257.2-308.9 81.2-6.5-13 4.4-30.3 18.8-29.9 7.6.6 15 2.9 22.7 3 66.9 4.4 122.4-58 124.3-124.1 1.8-34.2-8.4-67-28.7-92.6-5.5-6.9-6.4-16-2.4-23.7 3.9-7.7 11.7-11.9 20.4-11.1 95.3 4.1 160.8 103.6 153.8 197.2zm-85.3-90.9c38.7-1.2 38.7-57.3 0-58.5-38.7 1.1-38.7 57.2 0 58.5zm0-48.1c24.7.6 24.7 36.9 0 37.5-24.8-.6-24.8-36.8 0-37.5zm-121.8 223.9c-39.6 1.3-39.6 58.7 0 60 39.6-1.3 39.6-58.8 0-60zm0 50.1c-26.5-.7-26.5-39.6 0-40.3 26.6.7 26.5 39.6 0 40.3zm99-162.9c0 22.2 18.1 40.3 40.3 40.3 53.3-2 53.3-78.5 0-80.5-22.2 0-40.3 18-40.3 40.2zm70 0c-1.2 39.3-58.2 39.3-59.5 0 1.3-39.2 58.2-39.2 59.5 0zm-72.2 52c-25.8 0-46.8 21-46.8 46.8 2.5 62 91.1 62 93.5 0 .1-25.8-20.9-46.8-46.7-46.8zm0 83.1c-20 0-36.3-16.3-36.3-36.3 1.7-48 70.8-48 72.5 0 .1 20-16.2 36.3-36.2 36.3zm-226.2-77.7 8-17.2c48.2-37.4 49-102.6 9-137.8-3.1-3.1-8.9-.6-8.8 3.8-.2 15.2-4.2 27.6-11.7 36.7-5.7 6.9-12.2 10.3-18.4 13.7-24.7 10.8-29.7 34.2-17.2 62.8l-7.7 16.4c-23.3 33.6-44 69-61.5 105.9-19.2 40.1-34.6 82.1-46.2 125.1-.1.2 0 .5-.1.7 0 0-6 12.8-6 12.8-12.8 31 30.7 51.5 46.2 21.5 0 0 5.9-12.6 5.9-12.6.2-.2.5-.4.6-.7 48.9-70.1 85.6-148.7 107.9-231.1zm-32.3-79.2c3.3-6.1 8.6-8.9 15.3-12.4 17.4-7.5 32.6-26 34.8-47.4 28.4 32 21.3 84-14.7 112.3l-11.9-5.6c-.7-8.4.4-15.3 3.5-20.6 1.9-3.3 4.1-5.1 6.9-7.5 5.6-4.3 12.7-13.1 15.9-20.8 1.2-2.7 0-5.8-2.7-6.9-7.2-2.7-8.2 7.5-11.9 11.2-6 8.4-11.8 9.6-17.2 18.6-3.4 5.8-5.2 12.8-5.2 20.9l-9.8-4.6c-6.8-15.9-7.8-28.5-3-37.2zm-91 319.4c-9.2 18.5-36.6 5.7-28.3-13.2 0 0 4.4-9.5 4.4-9.5l28.3 13.3zm71.3-127.6c-17.5 38-38.4 74.6-62 108.9l-29.2-13.6c11.4-41.3 26.5-81.8 44.9-120.4 14.5 10.1 30.6 17.5 47.7 22-.5 1-.9 2.1-1.4 3.1zm5.8-12.9c-17-4.3-33.1-11.7-47.4-21.9 2.6-5.2 5.1-10.1 7.4-14.5 14.1 9.7 29.8 16.9 46.3 21.4-1.9 4.8-4 9.8-6.3 15zm10.3-24.9c-16.2-4.1-31.6-11.3-45.3-20.9 12.3-22.7 26-45 40.8-66.4l29.2 13.6c-6.9 24.9-15.2 49.6-24.7 73.7zm28.4-83.6-27.7-12.9 4.3-9.3c6.9 3.2 20.8 9.7 27.7 12.9zm79.9 182.5c-24.6 0-40.6-15.9-40.6-40.6 0-6.9-10.5-6.9-10.5 0 0 24.6-15.9 40.5-40.6 40.5-6.9 0-6.9 10.5 0 10.5 24.6 0 40.6 15.9 40.6 40.6 0 6.9 10.5 6.9 10.5 0 0-24.6 15.9-40.6 40.6-40.6 6.9.1 6.9-10.3 0-10.4zm-45.8 26.6c-4.5-9.4-11.9-16.8-21.3-21.3 9.4-4.5 16.8-11.9 21.3-21.3 4.5 9.4 11.9 16.8 21.3 21.3-9.4 4.5-16.8 11.9-21.3 21.3zm-172.7-374.8c24.6 0 40.6 15.9 40.6 40.6 0 6.8 10.5 6.9 10.5 0 0-24.6 15.9-40.5 40.6-40.5 6.9 0 6.9-10.5 0-10.5-24.6 0-40.5-15.9-40.5-40.6 0-6.8-10.5-6.9-10.5 0 0 24.6-15.9 40.6-40.6 40.6-6.9-.1-7 10.4-.1 10.4zm45.9-26.5c4.5 9.4 11.9 16.8 21.3 21.3-9.4 4.5-16.8 11.9-21.3 21.3-4.5-9.4-11.9-16.8-21.3-21.3 9.4-4.6 16.7-11.9 21.3-21.3zm405.4 401.1c-13.4 0-21.8-8.3-21.8-21.8 0-6.9-10.5-6.9-10.5 0 0 13.4-8.3 21.8-21.8 21.8-6.9 0-6.9 10.5 0 10.5 13.4 0 21.8 8.3 21.8 21.8 0 6.9 10.5 6.9 10.5 0 0-13.4 8.3-21.8 21.8-21.8 6.9 0 6.9-10.4 0-10.5zm-27 13.7c-2.2-3.3-5-6.2-8.4-8.4 3.3-2.2 6.2-5 8.4-8.4 2.2 3.3 5 6.2 8.4 8.4-3.4 2.2-6.2 5-8.4 8.4zm-204.9-354.1c13.4 0 21.8 8.3 21.8 21.8 0 6.9 10.5 6.9 10.5 0 0-13.4 8.3-21.8 21.8-21.8 6.9 0 6.9-10.5 0-10.5-13.4 0-21.8-8.3-21.8-21.8 0-6.9-10.5-6.9-10.5 0 0 13.4-8.3 21.8-21.8 21.8-6.8 0-6.8 10.4 0 10.5zm27.1-13.7c2.2 3.3 5 6.2 8.4 8.4-3.3 2.2-6.2 5-8.4 8.4-2.2-3.3-5-6.2-8.4-8.4 3.4-2.2 6.2-5 8.4-8.4z" fill="#012f49" fill-opacity="1" data-original-color="#000000ff" stroke="none" stroke-opacity="1"/></g></svg>