<svg height="300" viewBox="-26 0 512 512" width="300" xmlns="http://www.w3.org/2000/svg" version="1.1" xmlns:xlink="http://www.w3.org/1999/xlink" xmlns:svgjs="http://svgjs.dev/svgjs"><g width="100%" height="100%" transform="matrix(1,0,0,1,0,0)"><path d="m51.199219 512h358.402343c28.265626-.027344 51.171876-22.933594 51.199219-51.199219v-128c0-14.140625-11.460937-25.601562-25.601562-25.601562h-25.597657v-153.597657c.011719-20.101562-5.925781-39.753906-17.066406-56.484374v-71.515626c0-14.140624-11.464844-25.601562-25.601562-25.601562h-8.535156c-14.136719 0-25.597657 11.460938-25.597657 25.601562v29.011719c-5.796875-1.507812-11.71875-2.503906-17.691406-2.96875-4.039063-29.5625-29.273437-51.6093748-59.109375-51.644531h-51.199219c-29.824219.0351562-55.050781 22.058594-59.109375 51.601562-5.976562.480469-11.894531 1.488282-17.691406 3.011719v-29.011719c0-14.140624-11.460938-25.601562-25.601562-25.601562h-8.53125c-14.140626 0-25.601563 11.460938-25.601563 25.601562v71.515626c-11.140625 16.730468-17.078125 36.382812-17.066406 56.484374v153.597657h-25.597657c-14.140624 0-25.601562 11.460937-25.601562 25.601562v128c.0273438 28.265625 22.933594 51.171875 51.199219 51.199219zm-34.132813-51.199219v-93.867187h34.132813v102.398437c.03125 9.265625 3.109375 18.257813 8.757812 25.601563h-8.757812c-18.851563 0-34.132813-15.28125-34.132813-34.132813zm392.535156 34.132813h-8.757812c5.648438-7.34375 8.726562-16.335938 8.757812-25.601563v-102.398437h34.132813v93.867187c0 18.851563-15.28125 34.132813-34.132813 34.132813zm25.597657-170.667969c4.714843 0 8.535156 3.820313 8.535156 8.535156v17.066407h-34.132813v-25.601563zm-85.332031-298.664063c0-4.714843 3.820312-8.535156 8.53125-8.535156h8.535156c4.710937 0 8.53125 3.820313 8.53125 8.535156v51.890626c-2.1875-1.96875-4.464844-3.839844-6.824219-5.617188-.539063-.535156-1.152344-.996094-1.816406-1.363281-5.324219-3.828125-11.003907-7.136719-16.957031-9.882813zm-178.945313 187.730469c-25.390625.152344-46.996094-18.460937-50.601563-43.59375l-13.191406-87.613281c13.808594-9.042969 29.960938-13.859375 46.472656-13.859375h153.597657c16.511719 0 32.660156 4.816406 46.472656 13.859375l-13.191406 87.628906c-3.613281 25.125-25.21875 43.730469-50.601563 43.578125zm33.878906-196.265625h51.199219c20.269531.023438 37.734375 14.28125 41.8125 34.132813h-134.824219c4.078125-19.851563 21.542969-34.109375 41.8125-34.132813zm-110.933593 0h8.53125c4.714843 0 8.535156 3.820313 8.535156 8.535156v35.027344c-5.957032 2.746094-11.632813 6.054688-16.957032 9.882813-.664062.367187-1.277343.828125-1.816406 1.363281-2.355468 1.777344-4.632812 3.648438-6.828125 5.617188v-51.890626c0-4.714843 3.820313-8.535156 8.535157-8.535156zm-25.601563 136.535156c.007813-21.859374 8.433594-42.875 23.535156-58.675781l11.632813 77.335938c4.8125 33.519531 33.628906 58.339843 67.488281 58.136719h49.835937c-.902343 7.359374-5.015624 13.9375-11.238281 17.964843-4.21875 2.105469-5.929687 7.234375-3.824219 11.449219 2.105469 4.21875 7.234376 5.929688 11.453126 3.824219 5.417968-2.769531 9.996093-6.945313 13.25-12.089844 3.25 5.160156 7.828124 9.351563 13.253906 12.132813 4.21875 2.105468 9.34375.394531 11.453125-3.824219 2.105469-4.214844.394531-9.34375-3.824219-11.449219-6.203125-4.058594-10.304688-10.648438-11.203125-18.007812h49.800781c33.855469.207031 62.667969-24.605469 67.488282-58.117188l11.632812-77.355469c15.101562 15.800781 23.53125 36.816407 23.535156 58.675781v315.730469c0 14.140625-11.464844 25.601563-25.601562 25.601563h-273.066406c-14.140626 0-25.601563-11.460938-25.601563-25.601563zm-42.664063 170.664063h25.597657v25.601563h-34.132813v-17.066407c0-4.714843 3.820313-8.535156 8.535156-8.535156zm0 0" fill="#012f49" fill-opacity="1" data-original-color="#000000ff" stroke="none" stroke-opacity="1"/><path d="m102.398438 477.867188h256c9.425781 0 17.066406-7.640626 17.066406-17.066407v-102.402343c-.050782-42.390626-34.402344-76.746094-76.796875-76.796876h-136.535157c-42.394531.050782-76.746093 34.40625-76.800781 76.796876v102.402343c0 9.425781 7.640625 17.066407 17.066407 17.066407zm0-119.46875c.039062-32.972657 26.761718-59.695313 59.734374-59.730469h136.535157c32.972656.035156 59.695312 26.757812 59.730469 59.730469v102.402343h-256zm0 0" fill="#012f49" fill-opacity="1" data-original-color="#000000ff" stroke="none" stroke-opacity="1"/><path d="m298.667969 315.734375h-136.535157c-23.550781.027344-42.636718 19.113281-42.667968 42.664063v25.601562c0 4.710938 3.824218 8.535156 8.535156 8.535156s8.535156-3.824218 8.535156-8.535156v-25.601562c0-14.136719 11.460938-25.597657 25.597656-25.597657h119.46875v17.066407c0 4.710937 3.820313 8.53125 8.53125 8.53125 4.714844 0 8.535157-3.820313 8.535157-8.53125v-17.066407c14.136719 0 25.597656 11.460938 25.597656 25.597657v25.601562c0 4.710938 3.820313 8.535156 8.535156 8.535156 4.710938 0 8.53125-3.824218 8.53125-8.535156v-25.601562c-.027343-23.550782-19.113281-42.636719-42.664062-42.664063zm0 0" fill="#012f49" fill-opacity="1" data-original-color="#000000ff" stroke="none" stroke-opacity="1"/><path d="m290.132812 418.132812h-119.464843c-4.714844 0-8.535157 3.820313-8.535157 8.535157 0 4.710937 3.820313 8.53125 8.535157 8.53125h119.464843c4.714844 0 8.535157-3.820313 8.535157-8.53125 0-4.714844-3.820313-8.535157-8.535157-8.535157zm0 0" fill="#012f49" fill-opacity="1" data-original-color="#000000ff" stroke="none" stroke-opacity="1"/><path d="m290.132812 162.132812c0-9.425781-7.640624-17.066406-17.066406-17.066406h-85.332031c-9.425781 0-17.066406 7.640625-17.066406 17.066406v17.066407c0 9.425781 7.640625 17.066406 17.066406 17.066406h85.332031c9.425782 0 17.066406-7.640625 17.066406-17.066406zm-102.398437 17.066407v-17.066407h85.332031v17.066407zm0 0" fill="#012f49" fill-opacity="1" data-original-color="#000000ff" stroke="none" stroke-opacity="1"/></g></svg>