<svg id="outline" height="300" viewBox="0 0 64 64" width="300" xmlns="http://www.w3.org/2000/svg" version="1.1" xmlns:xlink="http://www.w3.org/1999/xlink" xmlns:svgjs="http://svgjs.dev/svgjs"><g width="100%" height="100%" transform="matrix(1,0,0,1,0,0)"><path d="m37.001 32.351c.199 0 .4-.06.576-.183 1.6-1.13 2.99-2.755 4.021-4.699.259-.488.073-1.094-.415-1.353-.487-.26-1.094-.072-1.352.415-.885 1.669-2.063 3.053-3.408 4.002-.451.319-.559.943-.24 1.395.195.275.504.423.818.423z" fill="#012f49" fill-opacity="1" data-original-color="#000000ff" stroke="none" stroke-opacity="1"/><path d="m26.533 8c.218 0 .438-.071.622-.217.693-.552 1.436-.982 2.207-1.283.515-.199.77-.779.57-1.294-.201-.516-.78-.773-1.294-.569-.959.372-1.877.904-2.728 1.58-.432.344-.504.974-.16 1.405.197.249.489.378.783.378z" fill="#012f49" fill-opacity="1" data-original-color="#000000ff" stroke="none" stroke-opacity="1"/><path d="m20.634 15.836c-.091.545.277 1.06.822 1.15.527.088 1.069-.333 1.15-.822.357-2.147 1.127-4.158 2.226-5.814.306-.46.18-1.08-.28-1.386-.461-.307-1.081-.18-1.386.28-1.253 1.889-2.128 4.168-2.532 6.592z" fill="#012f49" fill-opacity="1" data-original-color="#000000ff" stroke="none" stroke-opacity="1"/><path d="m62.034 17.296c-1.201-10.404-9.14-18.064-17.699-17.089-1.892.22-3.669.854-5.308 1.846-2.116-1.302-4.498-2.053-7.027-2.053-2.521 0-4.896.747-7.007 2.041-1.251-.702-2.581-1.206-3.975-1.474-4.138-.792-8.391.434-11.979 3.453-3.528 2.969-5.993 7.327-6.94 12.272-1.682 8.788 1.936 17.12 8.298 20.381l-.988 1.562c-.348.566-.396 1.266-.126 1.872.268.604.815 1.035 1.467 1.156l.746.137c-1.181 1.875-1.62 3.668-1.278 5.341.346 1.711 1.384 2.722 2.3 3.614.752.732 1.402 1.365 1.693 2.327.675 2.242-.929 5.354-4.769 9.249-.388.394-.383 1.026.01 1.414.195.192.449.288.702.288.258 0 .517-.1.712-.298 4.455-4.519 6.175-8.191 5.26-11.23-.44-1.458-1.382-2.374-2.212-3.184-.812-.79-1.512-1.472-1.736-2.578-.272-1.333.228-2.863 1.465-4.549 0 0 2.301.412 2.423.412.528 0 1.04-.208 1.418-.588.467-.469.672-1.136.547-1.797l-.355-1.778c2.311-.238 4.592-1.083 6.686-2.488 1.233.845 2.57 1.481 3.981 1.895l-.722 1.811c-.244.619-.166 1.315.207 1.863.37.55.988.876 1.652.876h.785c-.784 1.996-.853 3.769-.19 5.379.661 1.615 1.871 2.413 2.939 3.116.876.578 1.634 1.077 2.1 1.968 1.085 2.076.094 5.434-2.945 9.981-.307.459-.183 1.08.276 1.387.17.114.363.169.554.169.323 0 .64-.156.833-.444 3.525-5.275 4.525-9.207 3.054-12.02-.706-1.349-1.803-2.072-2.771-2.71-.945-.624-1.762-1.162-2.189-2.207-.537-1.305-.367-2.783.518-4.619h2.077c.664 0 1.282-.326 1.654-.873.373-.548.451-1.244.205-1.867l-.72-1.807c1.362-.4 2.659-1.001 3.857-1.803 1.653 1.093 3.416 1.82 5.231 2.163l-.463 1.742c-.168.637-.011 1.315.422 1.816.384.444.939.695 1.523.695.077 0 1.266-.14 1.266-.14-.595 2.182-.483 4.056.356 5.572.842 1.528 2.135 2.183 3.276 2.759.938.474 1.747.883 2.312 1.715 1.316 1.938.716 5.387-1.782 10.252-.252.491-.059 1.095.433 1.347.146.075.302.11.456.11.363 0 .713-.198.891-.543 2.898-5.645 3.44-9.664 1.657-12.29-.856-1.26-2.03-1.853-3.065-2.376-1.01-.51-1.882-.951-2.427-1.94-.668-1.208-.64-2.849.068-4.87l1.785-.218c.661-.075 1.238-.474 1.545-1.066.306-.593.298-1.295-.021-1.876l-.801-1.466c6.625-2.754 10.885-10.822 9.855-19.74zm-16.409 1.704c0 9.374-6.112 17-13.625 17s-13.625-7.626-13.625-17 6.112-17 13.625-17 13.625 7.626 13.625 17zm-34.52 20.294 1.153-1.824c.525.173 1.062.317 1.615.423.587.112 1.178.169 1.77.199l.418 2.115zm3.144-3.366c-7.379-1.414-11.949-10.055-10.187-19.259.862-4.497 3.086-8.445 6.264-11.119 3.119-2.622 6.783-3.694 10.315-3.018.87.167 1.71.448 2.519.817-4.093 3.429-6.785 9.163-6.785 15.651 0 6.246 2.502 11.78 6.34 15.246-2.669 1.623-5.635 2.223-8.466 1.682zm20.271 4.072h-5.042l.843-2.114c.552.072 1.111.114 1.679.114.567 0 1.127-.042 1.679-.114zm16.699-.542-5.002.608.541-2.035c.141.005.282.018.423.018.5 0 1.001-.028 1.504-.086.532-.062 1.055-.156 1.566-.28zm-2.762-3.481c-2.5.282-4.99-.283-7.275-1.637 3.896-3.458 6.443-9.038 6.443-15.339 0-6.503-2.703-12.248-6.812-15.675 1.179-.597 2.435-.979 3.751-1.132 7.466-.849 14.408 6.022 15.483 15.332s-4.125 17.586-11.59 18.451z" fill="#012f49" fill-opacity="1" data-original-color="#000000ff" stroke="none" stroke-opacity="1"/><path d="m57.188 21.007c-.542-.065-1.044.33-1.107.879-.246 2.147-.915 4.16-1.933 5.82-.289.471-.141 1.086.33 1.375.163.1.344.147.522.147.336 0 .665-.17.854-.478 1.169-1.907 1.935-4.202 2.215-6.637.062-.548-.332-1.044-.881-1.106z" fill="#012f49" fill-opacity="1" data-original-color="#000000ff" stroke="none" stroke-opacity="1"/><path d="m52 30.232c-.726.607-1.515 1.07-2.345 1.375-.519.19-.784.765-.594 1.283.148.405.531.655.938.655.5 0 2.38-1.023 3.283-1.778.423-.354.48-.985.125-1.409-.352-.423-.982-.48-1.407-.126z" fill="#012f49" fill-opacity="1" data-original-color="#000000ff" stroke="none" stroke-opacity="1"/><path d="m8.795 12.095c-.502-.236-1.095-.02-1.33.481-.619 1.321-1.087 2.743-1.39 4.224-.111.541.244 1.041.779 1.18.516.133 1.083-.306 1.18-.779.271-1.326.689-2.597 1.242-3.776.235-.501.019-1.096-.481-1.33z" fill="#012f49" fill-opacity="1" data-original-color="#000000ff" stroke="none" stroke-opacity="1"/><path d="m11.614 7.08c-.801.675-1.544 1.45-2.208 2.308-.339.436-.259 1.064.177 1.402.182.142.398.21.612.21.298 0 .594-.133.791-.388.578-.745 1.223-1.418 1.916-2.001.423-.355.477-.986.122-1.409-.356-.423-.986-.476-1.41-.122z" fill="#012f49" fill-opacity="1" data-original-color="#000000ff" stroke="none" stroke-opacity="1"/></g></svg>