<svg version="1.1" id="svg1779" xml:space="preserve" width="300" height="300" viewBox="0 0 682.66669 682.66669" xmlns="http://www.w3.org/2000/svg" xmlns:svg="http://www.w3.org/2000/svg" xmlns:xlink="http://www.w3.org/1999/xlink" xmlns:svgjs="http://svgjs.dev/svgjs"><g width="100%" height="100%" transform="matrix(1,0,0,1,0,0)"><defs id="defs1783"><clipPath clipPathUnits="userSpaceOnUse" id="clipPath1801"><path d="M 0,512 H 512 V 0 H 0 Z" id="path1799" fill="#012f49" fill-opacity="1" data-original-color="#000000ff" stroke="none" stroke-opacity="1"/></clipPath></defs><g id="g1785" transform="matrix(1.3333333,0,0,-1.3333333,0,682.66667)"><g id="g1787" transform="translate(72,58)"><path d="M 0,0 V 240.057" style="stroke-linecap: round; stroke-linejoin: round; stroke-miterlimit: 10; stroke-dasharray: none;" id="path1789" fill="none" fill-opacity="1" stroke="#012f49" stroke-opacity="1" data-original-stroke-color="#000000ff" stroke-width="20" data-original-stroke-width="20"/></g><g id="g1791" transform="translate(440,298.0566)"><path d="M 0,0 V -240.057" style="stroke-linecap: round; stroke-linejoin: round; stroke-miterlimit: 10; stroke-dasharray: none;" id="path1793" fill="none" fill-opacity="1" stroke="#012f49" stroke-opacity="1" data-original-stroke-color="#000000ff" stroke-width="20" data-original-stroke-width="20"/></g><g id="g1795"><g id="g1797" clip-path="url(#clipPath1801)"><g id="g1803" transform="translate(465.2407,282.5063)"><path d="M 0,0 -209.241,142.125 -418.481,0 -454.442,52.942 -209.241,219.494 35.96,52.942 Z" style="stroke-linecap: round; stroke-linejoin: round; stroke-miterlimit: 10; stroke-dasharray: none;" id="path1805" fill="none" fill-opacity="1" stroke="#012f49" stroke-opacity="1" data-original-stroke-color="#000000ff" stroke-width="20" data-original-stroke-width="20"/></g><g id="g1807" transform="translate(175.9999,234)"><path d="M 0,0 V 0 C 30.928,0 56,-25.072 56,-56 V -176 H -56 v 120 c 0,30.928 25.072,56 56,56 z" style="stroke-linecap: round; stroke-linejoin: round; stroke-miterlimit: 10; stroke-dasharray: none;" id="path1809" fill="none" fill-opacity="1" stroke="#012f49" stroke-opacity="1" data-original-stroke-color="#000000ff" stroke-width="20" data-original-stroke-width="20"/></g><g id="g1811" transform="translate(374.3333,128.0635)"><path d="m 0,0 h -80.54 c -9.792,0 -17.73,7.938 -17.73,17.73 v 60.54 c 0,9.792 7.938,17.73 17.73,17.73 H 0 C 9.792,96 17.73,88.062 17.73,78.27 V 17.73 C 17.73,7.938 9.792,0 0,0 Z" style="stroke-linecap: round; stroke-linejoin: round; stroke-miterlimit: 10; stroke-dasharray: none;" id="path1813" fill="none" fill-opacity="1" stroke="#012f49" stroke-opacity="1" data-original-stroke-color="#000000ff" stroke-width="20" data-original-stroke-width="20"/></g><g id="g1815" transform="translate(334.0635,219.1269)"><path d="M 0,0 V -86.127" style="stroke-linecap: round; stroke-linejoin: round; stroke-miterlimit: 10; stroke-dasharray: none;" id="path1817" fill="none" fill-opacity="1" stroke="#012f49" stroke-opacity="1" data-original-stroke-color="#000000ff" stroke-width="20" data-original-stroke-width="20"/></g><g id="g1819" transform="translate(386.0002,176.0634)"><path d="M 0,0 H -103.873" style="stroke-linecap: round; stroke-linejoin: round; stroke-miterlimit: 10; stroke-dasharray: none;" id="path1821" fill="none" fill-opacity="1" stroke="#012f49" stroke-opacity="1" data-original-stroke-color="#000000ff" stroke-width="20" data-original-stroke-width="20"/></g><g id="g1823" transform="translate(123.6667,413.561)"><path d="M 0,0 V 48.439 H -59.667 V -41.976" style="stroke-linecap: round; stroke-linejoin: round; stroke-miterlimit: 10; stroke-dasharray: none;" id="path1825" fill="none" fill-opacity="1" stroke="#012f49" stroke-opacity="1" data-original-stroke-color="#000000ff" stroke-width="20" data-original-stroke-width="20"/></g><g id="g1827" transform="translate(190.3333,142)"><path d="M 0,0 V 0" style="stroke-linecap: round; stroke-linejoin: round; stroke-miterlimit: 10; stroke-dasharray: none;" id="path1829" fill="none" fill-opacity="1" stroke="#012f49" stroke-opacity="1" data-original-stroke-color="#000000ff" stroke-width="20" data-original-stroke-width="20"/></g><g id="g1831" transform="translate(287.961,290.0566)"><path d="m 0,0 v 0 c 0,13.255 -10.745,24 -24,24 v 0 c 13.255,0 24,10.745 24,24 v 0 C 0,34.745 10.745,24 24,24 v 0 C 10.745,24 0,13.255 0,0 Z" style="stroke-linecap: round; stroke-linejoin: round; stroke-miterlimit: 10; stroke-dasharray: none;" id="path1833" fill="none" fill-opacity="1" stroke="#012f49" stroke-opacity="1" data-original-stroke-color="#000000ff" stroke-width="20" data-original-stroke-width="20"/></g><g id="g1835" transform="translate(448,454)"><path d="m 0,0 v 0 c 0,13.255 -10.745,24 -24,24 v 0 c 13.255,0 24,10.745 24,24 v 0 C 0,34.745 10.745,24 24,24 v 0 C 10.745,24 0,13.255 0,0 Z" style="stroke-linecap: round; stroke-linejoin: round; stroke-miterlimit: 10; stroke-dasharray: none;" id="path1837" fill="none" fill-opacity="1" stroke="#012f49" stroke-opacity="1" data-original-stroke-color="#000000ff" stroke-width="20" data-original-stroke-width="20"/></g><g id="g1839" transform="translate(379.064,58)"><path d="m 0,0 h 93.436 v -48 h -433 V 0 H -90" style="stroke-linecap: round; stroke-linejoin: round; stroke-miterlimit: 10; stroke-dasharray: none;" id="path1841" fill="none" fill-opacity="1" stroke="#012f49" stroke-opacity="1" data-original-stroke-color="#000000ff" stroke-width="20" data-original-stroke-width="20"/></g><g id="g1843" transform="translate(334.0637,58)"><path d="M 0,0 V 0" style="stroke-linecap: round; stroke-linejoin: round; stroke-miterlimit: 10; stroke-dasharray: none;" id="path1845" fill="none" fill-opacity="1" stroke="#012f49" stroke-opacity="1" data-original-stroke-color="#000000ff" stroke-width="20" data-original-stroke-width="20"/></g></g></g></g></g></svg>