<svg id="Layer_1" enable-background="new 0 0 512 512" viewBox="0 0 512 512" xmlns="http://www.w3.org/2000/svg" width="300" height="300" version="1.1" xmlns:xlink="http://www.w3.org/1999/xlink" xmlns:svgjs="http://svgjs.dev/svgjs"><g width="100%" height="100%" transform="matrix(1,0,0,1,0,0)"><path d="m503 425.046h-8.957v-246.485c10.998-9.349 16.957-22.568 16.957-38.092 0-1.618-.49-3.197-1.407-4.53l-80.53-117.201c-1.493-2.173-3.959-3.47-6.593-3.47-.014 0-.027 0-.042 0l-332.939 1.718c-2.62.014-5.068 1.31-6.552 3.47l-80.531 117.2c-.916 1.333-1.406 2.913-1.406 4.53 0 15.513 5.864 28.626 16.957 38.072v244.787h-8.957c-4.418 0-8 3.582-8 8v25.44c0 21.089 17.156 38.245 38.245 38.245h433.511c21.088 0 38.245-17.156 38.245-38.245v-25.44c-.001-4.417-3.582-7.999-8.001-7.999zm-318.295-29.94h-85.505v-120.874h85.504v120.874zm8-136.874h-101.505c-4.418 0-8 3.582-8 8v128.874h-19.304v-201.215c17.465-1.372 34.353-9.213 43.904-23.214 10.557 15.477 30.077 23.456 49.434 23.456 14.765 0 28.579-4.483 38.896-12.623 4.182-3.299 7.681-7.088 10.47-11.305 2.789 4.217 6.288 8.006 10.47 11.305 10.317 8.14 24.131 12.624 38.896 12.624 19.357 0 38.875-7.978 49.432-23.455 10.558 15.481 30.078 23.46 49.438 23.46 14.772 0 28.589-4.495 38.904-12.656 4.377-3.463 8.006-7.464 10.854-11.935 4.008 5.7 9.397 10.572 16.047 14.411 8.184 4.725 17.724 7.455 27.463 8.204v202.944h-247.399v-128.875c0-4.418-3.582-8-8-8zm-163.329-89.276c-6.24-4.917-10.139-11.299-11.654-19.035h81.537c-3.446 19.331-22.794 28.209-40.891 28.209-11.186.001-21.482-3.258-28.992-9.174zm283.152-35.035-14.019-102.013 52.17-.269 42.168 102.282zm82.921 16c-1.536 7.727-5.429 14.103-11.636 19.014-7.501 5.935-17.792 9.203-28.977 9.203-18.1 0-37.45-8.881-40.896-28.217zm-99.071-16h-80.709l13.97-101.658 52.731-.272zm.48 16c-3.445 19.333-22.794 28.212-40.892 28.212-11.186 0-21.479-3.262-28.986-9.185-6.229-4.914-10.124-11.296-11.646-19.028h81.524zm-97.339-16h-79.942l41.765-101.306 52.135-.269zm-1.653 16c-1.522 7.732-5.417 14.113-11.646 19.028-7.507 5.922-17.801 9.184-28.986 9.184-18.098 0-37.447-8.879-40.893-28.212zm230.775 20.182c-6.095-3.519-13.141-9.721-15.568-20.182h80.794c-2.668 10.611-9.626 16.821-15.681 20.317-14.285 8.249-35.122 8.192-49.545-.135zm60.153-36.182h-78.641l-42.204-102.371 50.326-.26zm-395.039-100.957 50.245-.259-41.728 101.217h-77.887zm-59.799 156.726c4.394 1.704 9.072 2.94 13.939 3.665v209.751c0 4.418 3.582 8 8 8h400.208c4.418 0 8-3.582 8-8v-211.5c4.804-.716 9.497-1.935 13.939-3.646v237.085h-444.086zm154.625 251.356h134.839v9.213h-134.839zm306.419 17.44c0 12.266-9.979 22.245-22.245 22.245h-433.51c-12.266 0-22.245-9.979-22.245-22.245v-17.44h155.581v17.213c0 4.418 3.582 8 8 8h150.839c4.418 0 8-3.582 8-8v-17.213h155.58zm-242.232-150.941h151.049c6.617 0 12-5.383 12-12v-60.392c0-6.617-5.383-12-12-12h-151.049c-6.617 0-12 5.383-12 12v60.392c0 6.617 5.384 12 12 12zm4-68.392h143.049v52.392h-143.049zm-42.53 123.277c.542 4.233 3.379 7.717 7.405 9.09 4.046 1.378 8.435.362 11.448-2.655l2.398-2.398 23.402 23.402c2.275 2.274 5.303 3.527 8.525 3.527s6.251-1.253 8.525-3.527l10.747-10.747c2.276-2.274 3.53-5.303 3.53-8.526 0-3.222-1.253-6.25-3.528-8.525l-23.402-23.402 2.396-2.396c3.02-3.017 4.038-7.404 2.657-11.45-1.373-4.024-4.856-6.861-9.088-7.403l-37.392-4.795c-3.435-.437-6.809.712-9.257 3.159-2.448 2.448-3.599 5.822-3.159 9.259zm33.073-30.413-.994.993c-3.124 3.125-3.124 8.189 0 11.314l26.271 26.271-5.171 5.171-26.271-26.271c-1.562-1.562-3.609-2.343-5.657-2.343-2.047 0-4.095.781-5.657 2.343l-.994.994-2.716-21.189zm-136.669 9.836v-14.368c0-4.418 3.582-8 8-8s8 3.582 8 8v14.368c0 4.418-3.582 8-8 8s-8-3.582-8-8z" fill="#012f49" fill-opacity="1" data-original-color="#000000ff" stroke="none" stroke-opacity="1"/></g></svg>