<svg id="Layer_1" height="300" viewBox="0 0 64 64" width="300" xmlns="http://www.w3.org/2000/svg" data-name="Layer 1" version="1.1" xmlns:xlink="http://www.w3.org/1999/xlink" xmlns:svgjs="http://svgjs.dev/svgjs"><g width="100%" height="100%" transform="matrix(1,0,0,1,0,0)"><g fill="rgb(0,0,0)"><path d="m46 64h-28a5.006 5.006 0 0 1 -5-5v-35a1 1 0 0 1 2 0v35a3 3 0 0 0 3 3h28a3 3 0 0 0 3-3v-34a1 1 0 0 1 2 0v34a5.006 5.006 0 0 1 -5 5z" fill="#012f49" fill-opacity="1" data-original-color="#000000ff" stroke="none" stroke-opacity="1"/><path d="m50 8a1 1 0 0 1 -1-1v-2a3 3 0 0 0 -3-3h-28a3 3 0 0 0 -3 3v2a1 1 0 0 1 -2 0v-2a5.006 5.006 0 0 1 5-5h28a5.006 5.006 0 0 1 5 5v2a1 1 0 0 1 -1 1z" fill="#012f49" fill-opacity="1" data-original-color="#000000ff" stroke="none" stroke-opacity="1"/><path d="m50 58h-36a1 1 0 0 1 0-2h36a1 1 0 0 1 0 2z" fill="#012f49" fill-opacity="1" data-original-color="#000000ff" stroke="none" stroke-opacity="1"/><path d="m32 5h-6a1 1 0 0 1 0-2h6a1 1 0 0 1 0 2z" fill="#012f49" fill-opacity="1" data-original-color="#000000ff" stroke="none" stroke-opacity="1"/><path d="m38 5h-2a1 1 0 0 1 0-2h2a1 1 0 0 1 0 2z" fill="#012f49" fill-opacity="1" data-original-color="#000000ff" stroke="none" stroke-opacity="1"/><path d="m35 61h-6a1 1 0 0 1 0-2h6a1 1 0 0 1 0 2z" fill="#012f49" fill-opacity="1" data-original-color="#000000ff" stroke="none" stroke-opacity="1"/><path d="m16 22a5.006 5.006 0 0 1 -5-5v-4a1 1 0 0 1 1-1h8a1 1 0 0 1 1 1v4a5.006 5.006 0 0 1 -5 5zm-3-8v3a3 3 0 0 0 6 0v-3z" fill="#012f49" fill-opacity="1" data-original-color="#000000ff" stroke="none" stroke-opacity="1"/><path d="m24 22a5.006 5.006 0 0 1 -5-5v-4a1 1 0 0 1 1-1h8a1 1 0 0 1 1 1v4a5.006 5.006 0 0 1 -5 5zm-3-8v3a3 3 0 0 0 6 0v-3z" fill="#012f49" fill-opacity="1" data-original-color="#000000ff" stroke="none" stroke-opacity="1"/><path d="m32 22a5.006 5.006 0 0 1 -5-5v-4a1 1 0 0 1 1-1h8a1 1 0 0 1 1 1v4a5.006 5.006 0 0 1 -5 5zm-3-8v3a3 3 0 0 0 6 0v-3z" fill="#012f49" fill-opacity="1" data-original-color="#000000ff" stroke="none" stroke-opacity="1"/><path d="m40 22a5.006 5.006 0 0 1 -5-5v-4a1 1 0 0 1 1-1h8a1 1 0 0 1 1 1v4a5.006 5.006 0 0 1 -5 5zm-3-8v3a3 3 0 0 0 6 0v-3z" fill="#012f49" fill-opacity="1" data-original-color="#000000ff" stroke="none" stroke-opacity="1"/><path d="m48 22a5.006 5.006 0 0 1 -5-5v-4a1 1 0 0 1 1-1h8a1 1 0 0 1 1 1v4a5.006 5.006 0 0 1 -5 5zm-3-8v3a3 3 0 0 0 6 0v-3z" fill="#012f49" fill-opacity="1" data-original-color="#000000ff" stroke="none" stroke-opacity="1"/><path d="m20 14h-8a1 1 0 0 1 -.895-1.447l3-6a1 1 0 0 1 .895-.553h8a1 1 0 0 1 .9 1.447l-3 6a1 1 0 0 1 -.9.553zm-6.382-2h5.764l2-4h-5.764z" fill="#012f49" fill-opacity="1" data-original-color="#000000ff" stroke="none" stroke-opacity="1"/><path d="m28 14h-8a1 1 0 0 1 -.895-1.447l3-6a1 1 0 0 1 .895-.553h6a1 1 0 0 1 .986 1.165l-1 6a1 1 0 0 1 -.986.835zm-6.382-2h5.535l.666-4h-4.2z" fill="#012f49" fill-opacity="1" data-original-color="#000000ff" stroke="none" stroke-opacity="1"/><path d="m36 14h-8a1 1 0 0 1 -.986-1.165l1-6a1 1 0 0 1 .986-.835h6a1 1 0 0 1 .986.835l1 6a1 1 0 0 1 -.986 1.165zm-6.819-2h5.638l-.666-4h-4.306z" fill="#012f49" fill-opacity="1" data-original-color="#000000ff" stroke="none" stroke-opacity="1"/><path d="m44 14h-8a1 1 0 0 1 -.986-.835l-1-6a1 1 0 0 1 .986-1.165h6a1 1 0 0 1 .9.553l3 6a1 1 0 0 1 -.9 1.447zm-7.153-2h5.535l-2-4h-4.2z" fill="#012f49" fill-opacity="1" data-original-color="#000000ff" stroke="none" stroke-opacity="1"/><path d="m52 14h-8a1 1 0 0 1 -.9-.553l-3-6a1 1 0 0 1 .9-1.447h8a1 1 0 0 1 .9.553l3 6a1 1 0 0 1 -.9 1.447zm-7.382-2h5.764l-2-4h-5.764z" fill="#012f49" fill-opacity="1" data-original-color="#000000ff" stroke="none" stroke-opacity="1"/><path d="m50 8h-36a1 1 0 0 1 0-2h36a1 1 0 0 1 0 2z" fill="#012f49" fill-opacity="1" data-original-color="#000000ff" stroke="none" stroke-opacity="1"/><path d="m41 53h-18a1 1 0 0 1 -1-1v-20a1 1 0 0 1 1-1h18a1 1 0 0 1 1 1v20a1 1 0 0 1 -1 1zm-17-2h16v-18h-16z" fill="#012f49" fill-opacity="1" data-original-color="#000000ff" stroke="none" stroke-opacity="1"/><path d="m36 35a1 1 0 0 1 -1-1v-4a3 3 0 0 0 -6 0v4a1 1 0 0 1 -2 0v-4a5 5 0 0 1 10 0v4a1 1 0 0 1 -1 1z" fill="#012f49" fill-opacity="1" data-original-color="#000000ff" stroke="none" stroke-opacity="1"/><path d="m44 46a1 1 0 0 1 -.707-1.707l2.293-2.293-2.293-2.293a1 1 0 0 1 1.414-1.414l3 3a1 1 0 0 1 0 1.414l-3 3a1 1 0 0 1 -.707.293z" fill="#012f49" fill-opacity="1" data-original-color="#000000ff" stroke="none" stroke-opacity="1"/><path d="m20 46a1 1 0 0 1 -.707-.293l-3-3a1 1 0 0 1 0-1.414l3-3a1 1 0 0 1 1.414 1.414l-2.293 2.293 2.293 2.293a1 1 0 0 1 -.707 1.707z" fill="#012f49" fill-opacity="1" data-original-color="#000000ff" stroke="none" stroke-opacity="1"/><path d="m37 49h-10a1 1 0 0 1 0-2h10a1 1 0 0 1 0 2z" fill="#012f49" fill-opacity="1" data-original-color="#000000ff" stroke="none" stroke-opacity="1"/></g></g></svg>