<svg id="Layer_1" enable-background="new 0 0 512 512" height="300" viewBox="0 0 512 512" width="300" xmlns="http://www.w3.org/2000/svg" version="1.1" xmlns:xlink="http://www.w3.org/1999/xlink" xmlns:svgjs="http://svgjs.dev/svgjs"><g width="100%" height="100%" transform="matrix(1,0,0,1,0,0)"><path d="m473.851 258.318c1.481-2.239 1.741-5.071.692-7.542l-27.486-64.719c-1.254-2.954-4.153-4.873-7.363-4.873h-63.494c-4.418 0-8 3.582-8 8v64.719c0 4.418 3.582 8 8 8h90.98c2.684 0 5.189-1.347 6.671-3.585zm-89.652-12.415v-48.719h50.2l20.691 48.719zm-188.124 122.457c0 6.246-5.055 11.301-11.301 11.301s-11.301-5.055-11.301-11.301 5.055-11.301 11.301-11.301c6.246.001 11.301 5.056 11.301 11.301zm238.579 0c0 6.246-5.055 11.301-11.301 11.301s-11.301-5.055-11.301-11.301 5.055-11.301 11.301-11.301c6.246.001 11.301 5.056 11.301 11.301zm-426.654-213.64c0-4.418 3.582-8 8-8h135.08c4.418 0 8 3.582 8 8s-3.582 8-8 8h-135.08c-4.418 0-8-3.581-8-8zm117.882 36.25c4.418 0 8 3.582 8 8s-3.582 8-8 8h-87.364c-4.418 0-8-3.582-8-8s3.582-8 8-8zm376.077 59.147-32.895-77.455c-4.447-10.468-14.684-16.972-26.715-16.972h-83.644v-28.636c0-13.556-11.028-24.584-24.583-24.584h-281.086c-4.418 0-8 3.582-8 8s3.582 8 8 8h281.086c4.733 0 8.583 3.851 8.583 8.584v233.306h-117.549c-3.735-18.883-20.419-33.168-40.382-33.168s-36.647 14.285-40.382 33.168h-43.099c-4.733 0-8.583-3.851-8.583-8.584v-108.557c0-2.122-.843-4.157-2.343-5.657s-3.535-2.343-5.657-2.343h-68.71c-4.418 0-8 3.582-8 8s3.582 8 8 8h60.71v100.557c0 13.556 11.028 24.584 24.583 24.584h43.099c3.735 18.883 20.419 33.168 40.382 33.168s36.648-14.285 40.382-33.168h157.815c3.735 18.884 20.419 33.169 40.382 33.169s36.647-14.285 40.382-33.169h19.827c11.27 0 20.438-9.168 20.438-20.438v-95.827c0-3.528-.648-6.698-2.041-9.978zm-317.185 143.412c-13.878 0-25.168-11.291-25.168-25.168s11.291-25.168 25.168-25.168c13.878 0 25.169 11.291 25.169 25.168s-11.291 25.168-25.169 25.168zm238.58 0c-13.878 0-25.168-11.291-25.168-25.168s11.291-25.168 25.168-25.168 25.168 11.291 25.168 25.168-11.291 25.168-25.168 25.168zm60.208-33.169h-19.827c-3.735-18.883-20.419-33.168-40.382-33.168s-36.647 14.285-40.382 33.168h-24.266v-188.669h83.644c5.501 0 10.095 2.77 11.989 7.227l32.894 77.452c.553 1.302.768 2.347.768 3.725v35.2h-13.044c-7.573 0-13.734 6.161-13.734 13.733v24.082c0 7.573 6.161 13.734 13.734 13.734h13.044v9.078c0 2.447-1.991 4.438-4.438 4.438zm4.438-49.065v19.549h-10.778v-19.549zm-262.001 1.478c42.333 0 76.774-34.441 76.774-76.775 0-42.333-34.441-76.774-76.774-76.774s-76.774 34.441-76.774 76.774c0 42.334 34.441 76.775 76.774 76.775zm0-137.549c33.511 0 60.774 27.263 60.774 60.774s-27.263 60.775-60.774 60.775-60.774-27.264-60.774-60.775c0-33.51 27.263-60.774 60.774-60.774zm-44.483 71.557 22.603 22.602c3.437 3.438 8.008 5.331 12.87 5.331s9.433-1.893 12.87-5.331c8.572-8.572 17.215-17.339 25.574-25.817 5.031-5.103 10.062-10.205 15.105-15.295 7.049-7.114 7.01-18.642-.085-25.697-3.45-3.431-8.047-5.328-12.896-5.291-4.859.019-9.417 1.929-12.833 5.379l-27.784 28.062-9.682-9.682c-7.096-7.097-18.643-7.096-25.741 0-7.097 7.096-7.097 18.642-.001 25.739zm11.313-14.426c.43-.429.994-.644 1.557-.644.564 0 1.127.214 1.557.644l15.367 15.367c1.5 1.5 3.535 2.343 5.657 2.343h.02c2.128-.005 4.167-.859 5.665-2.371l33.441-33.775c.518-.523 1.115-.635 1.525-.637.435-.011 1.021.108 1.553.636.851.846.852 2.232.002 3.09-5.053 5.1-10.093 10.212-15.133 15.324-8.339 8.458-16.962 17.205-25.494 25.737-.859.859-2.255.858-3.113 0l-22.602-22.602c-.859-.857-.859-2.254-.002-3.112z" fill="#012f49" fill-opacity="1" data-original-color="#000000ff" stroke="none" stroke-opacity="1"/></g></svg>