<svg version="1.1" id="svg459" xml:space="preserve" width="300" height="300" viewBox="0 0 682.66669 682.66669" xmlns="http://www.w3.org/2000/svg" xmlns:svg="http://www.w3.org/2000/svg" xmlns:xlink="http://www.w3.org/1999/xlink" xmlns:svgjs="http://svgjs.dev/svgjs"><g width="100%" height="100%" transform="matrix(1,0,0,1,0,0)"><defs id="defs463"><clipPath clipPathUnits="userSpaceOnUse" id="clipPath473"><path d="M 0,512 H 512 V 0 H 0 Z" id="path471" fill="#012f49" fill-opacity="1" data-original-color="#000000ff" stroke="none" stroke-opacity="1"/></clipPath></defs><g id="g465" transform="matrix(1.3333333,0,0,-1.3333333,0,682.66667)"><g id="g467"><g id="g469" clip-path="url(#clipPath473)"><g id="g475" transform="translate(182.6948,7.5)"><path d="m 0,0 c -17.443,20.289 -17.443,41.836 0,62.125 17.443,20.289 17.443,41.836 0,62.125 -17.443,20.289 -17.443,41.836 0,62.125 17.443,20.289 17.443,45.836 0,66.125 M -91.805,0 c 17.443,20.289 17.443,41.836 0,62.125 -17.443,20.289 -17.443,41.836 0,62.125 14.07,16.365 16.79,35.501 8.162,52.938 M 222.805,0 c -17.443,20.289 -17.443,41.836 0,62.125 17.443,20.289 17.443,41.836 0,62.125 -17.443,20.289 -17.443,41.836 0,62.125 9.574,11.136 13.893,22.651 12.957,34.129 M 131,0 c 17.443,20.289 17.443,41.836 0,62.125 -17.443,20.289 -17.443,41.836 0,62.125 1.729,2.011 3.287,4.035 4.673,6.068 M -94.14,207.839 c -3.257,-5.407 -9.408,-18.009 -9.408,-21.628 0,-4.624 9.025,-8.372 20.158,-8.372 11.134,0 20.159,3.748 20.159,8.372 0,3.619 -6.188,16.225 -9.418,21.628 m -18.502,213.645 c -47.071,-3.941 -84.044,-43.394 -84.044,-91.482 0,-62.482 56.673,-122.163 91.805,-122.163 20.01,0 47.007,19.359 66.54,47.569 m 143.1,-94.376 c -3.257,-5.407 -9.408,-18.009 -9.408,-21.628 0,-4.624 9.025,-8.372 20.158,-8.372 11.133,0 20.159,3.748 20.159,8.372 0,3.618 -6.188,16.224 -9.419,21.628 m 6.894,212.276 C 148.927,374.418 143.032,375 137,375 86.297,375 45.195,333.897 45.195,283.195 c 0,-62.483 56.673,-122.163 91.805,-122.163 35.132,0 91.805,59.68 91.805,122.163 0,34.142 -18.637,63.931 -46.293,79.748 M -10.74,283.032 c -3.231,-5.404 -9.418,-18.01 -9.418,-21.628 0,-4.624 9.025,-8.372 20.158,-8.372 11.133,0 20.159,3.748 20.159,8.372 0,3.618 -6.188,16.224 -9.419,21.628 M -68.783,466 c -14.326,-16.193 -23.022,-37.484 -23.022,-60.805 0,-62.483 56.673,-122.163 91.805,-122.163 14.426,0 32.484,10.062 48.759,26.25 m 32.19,47.032 c 6.724,15.343 10.856,32.01 10.856,48.881 C 91.805,455.897 50.703,497 0,497 c -16.679,0 -32.319,-4.448 -45.799,-12.222 M 214.612,224.996 c 3.698,-1.813 9.219,-2.964 15.388,-2.964 11.133,0 20.159,3.748 20.159,8.372 0,3.618 -6.188,16.224 -9.419,21.628 M 230,466 c 50.703,0 91.805,-41.103 91.805,-91.805 0,-62.483 -56.673,-122.163 -91.805,-122.163 -1.232,0 -2.491,0.073 -3.773,0.218 m -87.989,124.795 c 1.189,38.969 26.662,71.828 61.8,83.955" style="stroke-linecap: round; stroke-linejoin: round; stroke-miterlimit: 10; stroke-dasharray: none;" id="path477" fill="none" fill-opacity="1" stroke="#012f49" stroke-opacity="1" data-original-stroke-color="#000000ff" stroke-width="10" data-original-stroke-width="15"/></g></g></g></g></g></svg>