<svg xmlns="http://www.w3.org/2000/svg" viewBox="0 0 96 96" width="300" height="300" version="1.1" xmlns:xlink="http://www.w3.org/1999/xlink" xmlns:svgjs="http://svgjs.dev/svgjs"><g width="100%" height="100%" transform="matrix(1,0,0,1,0,0)"><g id="Favorite"><path d="M46,54.89a3.15,3.15,0,0,0-3.14-3.14H22.53a3.15,3.15,0,0,0-3.14,3.14V76a1,1,0,0,0,1,1H45a1,1,0,0,0,1-1ZM21.39,59H31.68v7H21.39Zm12.29,0H44v7H33.68ZM21.39,54.89a1.14,1.14,0,0,1,1.14-1.14H42.82A1.14,1.14,0,0,1,44,54.89V57H21.39Zm0,13.13H31.68v7H21.39Zm12.29,7V68H44v7Z" fill="#012f49" fill-opacity="1" data-original-color="#000000ff" stroke="none" stroke-opacity="1"/><path d="M58,72.2a3,3,0,1,0,3,3A3,3,0,0,0,58,72.2Zm0,4.08a1,1,0,1,1,1-1A1,1,0,0,1,58,76.28Z" fill="#012f49" fill-opacity="1" data-original-color="#000000ff" stroke="none" stroke-opacity="1"/><path d="M36.72,80.07H28.63a1,1,0,1,0,0,2h8.09a1,1,0,0,0,0-2Z" fill="#012f49" fill-opacity="1" data-original-color="#000000ff" stroke="none" stroke-opacity="1"/><path d="M84.69,64V49.05l1.62,1.62a4,4,0,0,0,5.58,0l1.82-1.82a3.94,3.94,0,0,0,0-5.57L51.65,1.21a4.18,4.18,0,0,0-5.89,0L28,19c0-5.71-.05-5.3,0-5.3a2.81,2.81,0,0,0,2.81-2.82V7.71a2.82,2.82,0,0,0-2.81-2.82H11.86A2.83,2.83,0,0,0,9,7.71v3.13a2.82,2.82,0,0,0,2.87,2.82V35.07L3.7,43.28a3.94,3.94,0,0,0,0,5.57l1.82,1.82a3.93,3.93,0,0,0,5.58,0l.81-.81V78.93a7.33,7.33,0,0,0-5.83,4.76,4.94,4.94,0,1,0-1,9.78h65.5A16.44,16.44,0,1,0,84.69,64ZM11,10.84V7.71a.82.82,0,0,1,.82-.82h16.2a.82.82,0,0,1,.81.82v3.13a.81.81,0,0,1-.81.82H11.86A.82.82,0,0,1,11,10.84Zm2.87,2.82H26V21L13.91,33.07ZM9.68,49.26a1.94,1.94,0,0,1-2.75,0L5.12,47.44a1.94,1.94,0,0,1,0-2.75L47.18,2.63a2.16,2.16,0,0,1,3,0L92.29,44.69a1.94,1.94,0,0,1,0,2.75l-1.82,1.82a1.93,1.93,0,0,1-2.74,0C49,10.52,49.41,11,49.41,10.94a1,1,0,0,0-1.41,0C48,11,9.81,49.14,9.68,49.26ZM2.19,88.53a2.94,2.94,0,0,1,4.16-2.67,1,1,0,0,0,1.4-.71A5.27,5.27,0,0,1,11.91,81V91.47H5.13A2.94,2.94,0,0,1,2.19,88.53Zm11.72,2.94V47.86L48.7,13.07l34,34V63.44a16.19,16.19,0,0,0-5.48-.19V54.89a3.15,3.15,0,0,0-3.14-3.14H53.78a3.15,3.15,0,0,0-3.14,3.14V91.47ZM75.21,57H52.64V54.89a1.14,1.14,0,0,1,1.14-1.14H74.07a1.14,1.14,0,0,1,1.14,1.14ZM52.64,91.47V59H75.21v4.63a16.46,16.46,0,0,0-7.15,27.84Zm18.59,0A14.44,14.44,0,1,1,93.82,79.55C93.82,91,80.85,98.11,71.23,91.47Z" fill="#012f49" fill-opacity="1" data-original-color="#000000ff" stroke="none" stroke-opacity="1"/><path d="M84.69,73.29a4.67,4.67,0,0,0-5.32.81,4.67,4.67,0,0,0-6.54,6.67c6.37,6.37,6,6.12,6.54,6.12a1,1,0,0,0,.71-.29l5.83-5.83A4.68,4.68,0,0,0,84.69,73.29Zm0,5.86c-.19.22.52-.49-5.32,5.33l-5.12-5.12a2.67,2.67,0,0,1,3-4.34,4.8,4.8,0,0,1,1.45,1.2,1,1,0,0,0,1.42,0l.64-.64a2.73,2.73,0,0,1,3.78,0A2.68,2.68,0,0,1,84.69,79.15Z" fill="#012f49" fill-opacity="1" data-original-color="#000000ff" stroke="none" stroke-opacity="1"/></g></g></svg>