<svg id="Layer_1" enable-background="new 0 0 512 512" height="300" viewBox="0 0 512 512" width="300" xmlns="http://www.w3.org/2000/svg" version="1.1" xmlns:xlink="http://www.w3.org/1999/xlink" xmlns:svgjs="http://svgjs.dev/svgjs"><g width="100%" height="100%" transform="matrix(1,0,0,1,0,0)"><path d="m476 182.881h-58.526v-48.92c0-13.785-11.215-25-25-25h-15.533v-72.961c0-13.785-11.215-25-25-25h-191.881c-13.785 0-25 11.215-25 25v72.961h-15.534c-13.785 0-25 11.215-25 25v48.92h-58.526c-13.784 0-24.999 11.215-24.999 25v189.641c0 13.784 11.215 24.999 24.999 24.999h99.061v53.479c0 13.785 11.215 25 25 25h191.881c13.785 0 25-11.215 25-25v-53.479h99.058c13.784 0 24.999-11.215 24.999-24.999v-189.641c.001-13.785-11.214-25-24.999-25zm-83.526-63.92c8.271 0 15 6.729 15 15v48.92h-30.533v-63.92zm-232.414-97.961h191.881c8.271 0 15 6.729 15 15v146.881h-221.881v-146.881c0-8.271 6.729-15 15-15zm-55.534 112.961c0-8.271 6.729-15 15-15h15.534v63.92h-30.534zm-68.526 58.92h440c8.271 0 14.999 6.729 14.999 15v32.41h-469.999v-32.41c0-8.272 6.729-15 15-15zm315.941 298.119h-191.881c-8.271 0-15-6.729-15-15v-139.594h221.881v139.594c0 8.271-6.729 15-15 15zm124.059-78.479h-99.06v-76.114h22.292c2.762 0 5-2.238 5-5s-2.238-5-5-5h-286.464c-2.762 0-5 2.238-5 5s2.238 5 5 5h22.292v76.114h-99.06c-8.271 0-14.999-6.729-14.999-14.999v-147.23h469.999v147.23c0 8.27-6.729 14.999-15 14.999zm-286.262-329.417c-1.953-1.952-1.953-5.118 0-7.07 36.537-36.537 95.987-36.539 132.524 0 1.953 1.952 1.953 5.118 0 7.07-.976.977-2.256 1.465-3.535 1.465s-2.56-.488-3.535-1.465c-32.638-32.636-85.744-32.638-118.384 0-1.951 1.953-5.119 1.953-7.07 0zm105.152 20.301c1.953 1.952 1.953 5.118 0 7.07-.976.977-2.256 1.465-3.535 1.465s-2.56-.488-3.535-1.465c-8.5-8.499-19.8-13.18-31.82-13.18s-23.319 4.681-31.819 13.18c-1.951 1.953-5.119 1.953-7.07 0-1.953-1.952-1.953-5.118 0-7.07 21.443-21.446 56.337-21.444 77.779 0zm-30.89 38.89c0 4.406-3.594 8-8 8s-8-3.594-8-8 3.594-8 8-8 8 3.594 8 8zm196.413 91.123c9.281 0 16.833-7.552 16.833-16.833s-7.552-16.832-16.833-16.832-16.833 7.551-16.833 16.832 7.551 16.833 16.833 16.833zm0-23.665c3.768 0 6.833 3.064 6.833 6.832s-3.065 6.833-6.833 6.833-6.833-3.065-6.833-6.833 3.065-6.832 6.833-6.832zm-120.853 203.95c0 2.762-2.238 5-5 5h-157.119c-2.762 0-5-2.238-5-5s2.238-5 5-5h157.119c2.762 0 5 2.238 5 5zm0 34.861c0 2.762-2.238 5-5 5h-157.119c-2.762 0-5-2.238-5-5s2.238-5 5-5h157.119c2.762 0 5 2.239 5 5zm0-69.722c0 2.762-2.238 5-5 5h-157.119c-2.762 0-5-2.238-5-5s2.238-5 5-5h157.119c2.762 0 5 2.238 5 5z" fill="#012f49" fill-opacity="1" data-original-color="#000000ff" stroke="none" stroke-opacity="1"/></g></svg>