<svg id="Layer_1" height="300" viewBox="0 0 100 100" width="300" xmlns="http://www.w3.org/2000/svg" data-name="Layer 1" version="1.1" xmlns:xlink="http://www.w3.org/1999/xlink" xmlns:svgjs="http://svgjs.dev/svgjs"><g width="100%" height="100%" transform="matrix(1,0,0,1,0,0)"><path d="m57 34h14c.55 0 1-.45 1-1s-.45-1-1-1h-14c-.55 0-1 .45-1 1s.45 1 1 1z" fill="#012f49" fill-opacity="1" data-original-color="#000000ff" stroke="none" stroke-opacity="1"/><path d="m57 41h14c.55 0 1-.45 1-1s-.45-1-1-1h-14c-.55 0-1 .45-1 1s.45 1 1 1z" fill="#012f49" fill-opacity="1" data-original-color="#000000ff" stroke="none" stroke-opacity="1"/><path d="m82 53h-25c-.55 0-1 .45-1 1s.45 1 1 1h25c.55 0 1-.45 1-1s-.45-1-1-1z" fill="#012f49" fill-opacity="1" data-original-color="#000000ff" stroke="none" stroke-opacity="1"/><path d="m82 46h-25c-.55 0-1 .45-1 1s.45 1 1 1h25c.55 0 1-.45 1-1s-.45-1-1-1z" fill="#012f49" fill-opacity="1" data-original-color="#000000ff" stroke="none" stroke-opacity="1"/><path d="m57 62h14c.55 0 1-.45 1-1s-.45-1-1-1h-14c-.55 0-1 .45-1 1s.45 1 1 1z" fill="#012f49" fill-opacity="1" data-original-color="#000000ff" stroke="none" stroke-opacity="1"/><path d="m82 67h-25c-.55 0-1 .45-1 1s.45 1 1 1h25c.55 0 1-.45 1-1s-.45-1-1-1z" fill="#012f49" fill-opacity="1" data-original-color="#000000ff" stroke="none" stroke-opacity="1"/><path d="m82 74h-25c-.55 0-1 .45-1 1s.45 1 1 1h25c.55 0 1-.45 1-1s-.45-1-1-1z" fill="#012f49" fill-opacity="1" data-original-color="#000000ff" stroke="none" stroke-opacity="1"/><path d="m18 34h25c.55 0 1-.45 1-1s-.45-1-1-1h-25c-.55 0-1 .45-1 1s.45 1 1 1z" fill="#012f49" fill-opacity="1" data-original-color="#000000ff" stroke="none" stroke-opacity="1"/><path d="m18 41h25c.55 0 1-.45 1-1s-.45-1-1-1h-25c-.55 0-1 .45-1 1s.45 1 1 1z" fill="#012f49" fill-opacity="1" data-original-color="#000000ff" stroke="none" stroke-opacity="1"/><path d="m18 55h14c.55 0 1-.45 1-1s-.45-1-1-1h-14c-.55 0-1 .45-1 1s.45 1 1 1z" fill="#012f49" fill-opacity="1" data-original-color="#000000ff" stroke="none" stroke-opacity="1"/><path d="m18 48h25c.55 0 1-.45 1-1s-.45-1-1-1h-25c-.55 0-1 .45-1 1s.45 1 1 1z" fill="#012f49" fill-opacity="1" data-original-color="#000000ff" stroke="none" stroke-opacity="1"/><path d="m18 62h25c.55 0 1-.45 1-1s-.45-1-1-1h-25c-.55 0-1 .45-1 1s.45 1 1 1z" fill="#012f49" fill-opacity="1" data-original-color="#000000ff" stroke="none" stroke-opacity="1"/><path d="m18 69h25c.55 0 1-.45 1-1s-.45-1-1-1h-25c-.55 0-1 .45-1 1s.45 1 1 1z" fill="#012f49" fill-opacity="1" data-original-color="#000000ff" stroke="none" stroke-opacity="1"/><path d="m18 76h14c.55 0 1-.45 1-1s-.45-1-1-1h-14c-.55 0-1 .45-1 1s.45 1 1 1z" fill="#012f49" fill-opacity="1" data-original-color="#000000ff" stroke="none" stroke-opacity="1"/><path d="m94 30h-4v-5c0-.55-.45-1-1-1h-12.8c1.74-2.02 2.8-4.63 2.8-7.5 0-6.34-5.16-11.5-11.5-11.5-5.48 0-10.07 3.86-11.22 9h-12.56c-1.15-5.14-5.74-9-11.22-9-6.34 0-11.5 5.16-11.5 11.5 0 2.87 1.06 5.48 2.8 7.5h-12.8c-.55 0-1 .45-1 1v5h-4c-.55 0-1 .45-1 1v63c0 .55.45 1 1 1h88c.55 0 1-.45 1-1v-63c0-.55-.45-1-1-1zm-82 53h31.5c2.72 0 4.98 2.17 5.42 5h-36.92zm76-2h-31.5c-2.17 0-4.13 1-5.5 2.58v-51.58c0-3.36 2.42-6 5.5-6h4.53c1.84 1.26 4.07 2 6.47 2s4.62-.74 6.47-2h1.03v14c-.03.86 1.12 1.34 1.71.71l3.29-3.29 3.29 3.29c.59.63 1.74.16 1.71-.71v-14h3zm0 2v5h-36.92c.44-2.83 2.7-5 5.42-5zm-20.5-57c-2.72 0-5.18-1.16-6.91-3h13.82c-1.73 1.84-4.19 3-6.91 3zm9.5 0h6v11.59l-2.29-2.29c-.39-.39-1.02-.39-1.41 0l-2.29 2.29v-11.59zm-9.5-19c5.24 0 9.5 4.26 9.5 9.5 0 1.63-.41 3.16-1.14 4.5h-16.73c-.72-1.34-1.14-2.87-1.14-4.5 0-5.24 4.26-9.5 9.5-9.5zm-11.47 9c-.18 3 .94 5.88 2.78 8h-2.3c-2.82 0-5.22 1.58-6.5 3.97-1.28-2.39-3.68-3.97-6.5-3.97h-2.3c1.83-2.12 2.96-5 2.78-8h12.05zm-30.42 7.01h13.81c-1.73 1.83-4.19 2.99-6.91 2.99s-5.17-1.15-6.9-2.99zm6.9-16.01c5.24 0 9.5 4.26 9.5 9.5 0 1.63-.41 3.16-1.14 4.5h-16.73c-.73-1.33-1.14-2.87-1.14-4.5 0-5.24 4.26-9.5 9.5-9.5zm-6.47 19c1.84 1.26 4.07 2 6.47 2s4.62-.74 6.47-2h4.53c3.08 0 5.5 2.64 5.5 6v51.58c-1.37-1.58-3.33-2.58-5.5-2.58h-31.51v-55h14.03zm66.96 67h-86v-61h3v57c0 .55.45 1 1 1h78c.55 0 1-.45 1-1v-57h3z" fill="#012f49" fill-opacity="1" data-original-color="#000000ff" stroke="none" stroke-opacity="1"/><path d="m81.77 11.97c2.25.54 3.64 1.94 4.27 4.28.12.44.51.74.97.74h.02c.46 0 .85-.33.96-.78.5-2.18 1.87-3.54 4.31-4.27.43-.13.72-.53.71-.98 0-.45-.31-.84-.75-.95-2.24-.58-3.65-1.99-4.29-4.3-.12-.43-.51-.73-.95-.73h-.01c-.44 0-.83.29-.96.71-.83 2.69-2.15 4.06-4.16 4.3-.48.06-.85.45-.88.94-.03.48.29.92.77 1.03zm5.25-3.4c.62 1.02 1.43 1.83 2.44 2.44-1.04.62-1.86 1.41-2.46 2.37-.57-.95-1.32-1.72-2.23-2.31.9-.58 1.65-1.41 2.25-2.5z" fill="#012f49" fill-opacity="1" data-original-color="#000000ff" stroke="none" stroke-opacity="1"/></g></svg>