<svg id="Layer_1" enable-background="new 0 0 54 54" viewBox="0 0 54 54" xmlns="http://www.w3.org/2000/svg" width="300" height="300" version="1.1" xmlns:xlink="http://www.w3.org/1999/xlink" xmlns:svgjs="http://svgjs.dev/svgjs"><g width="100%" height="100%" transform="matrix(1,0,0,1,0,0)"><g><path d="m50.114315 16.8349609-21.4072266-13.65625c-1.0390625-.6630859-2.3779297-.6621094-3.4130859 0l-8.7509765 5.5823975v-1.7962646h.3583984c.7119141 0 1.2910156-.5791016 1.2910156-1.2910156v-2.1572266c0-.7119141-.5791016-1.2910156-1.2910156-1.2910156h-9.8564458c-.7109375 0-1.2900391.5791016-1.2900391 1.2910156v2.1572266c0 .7119141.5791016 1.2910156 1.2900391 1.2910156h.3525391v7.6303101l-3.5126951 2.2407837c-1.7416797 1.1163769-2.191998 3.4612942-.9707031 5.1435547 1.1121156 1.5361595 3.3725946 1.9027138 5.0390625.7958984l.4560556-.3027344v23.0429687h-.6894543c-1.5654297 0-2.8388672 1.2734375-2.8388672 2.8388672v1.8710938h-1.1738279c-.4277344 0-.7744141.3466797-.7744141.7744141s.3466797.7744141.7744141.7744141h46.5869141c.4277344 0 .7744141-.3466797.7744141-.7744141s-.3466797-.7744141-.7744141-.7744141h-1.1738281v-1.8710938c0-1.5654297-1.2734375-2.8388672-2.8388672-2.8388672h-.6904297v-23.0439453l.4560547.3027344c1.6630859 1.1054688 3.9228516.7451172 5.0410156-.7949219 1.2121546-1.6732998.7787173-4.0207234-.9736326-5.1445313zm-42.8105473-13.0605468h9.3398438v1.6416016h-9.3398438zm1.6425786 3.1933593h6.0478516v2.781311l-6.0478516 3.8580322zm38.625 41.3867188v1.8710938h-41.1416021v-1.8710938c0-.7119141.578125-1.2900391 1.2900391-1.2900391h38.5615234c.7119146 0 1.2900396.578125 1.2900396 1.2900391zm-21.8359375-2.8388672h-11.7021485v-12.7080078c0-.7119141.578125-1.2900391 1.2900391-1.2900391h9.1220703c.7119141 0 1.2900391.578125 1.2900391 1.2900391zm18.3066406 0h-16.7578125v-12.7080078c0-1.5654297-1.2734375-2.8388672-2.8388672-2.8388672h-9.1220703c-1.5654297 0-2.8388672 1.2734375-2.8388672 2.8388672v12.7080078h-2.5263672v-24.071167l16.1425781-10.7159424c.546875-.3623047 1.2529297-.3613281 1.7998047.0009766l16.1416016 10.7141724zm5.7919922-24.4453125c-.6367188.8789063-1.9521484 1.0654297-2.9306641.4140625l-18.1474609-12.0449219c-1.0654297-.7080078-2.4433594-.7080078-3.5107422-.0009766l-18.148438 12.0468751c-.9755859.6484375-2.2910156.4648438-2.9296875-.4150391-.7029967-.9702969-.4291971-2.2999344.5517578-2.9306641l21.4072266-13.65625c.5320473-.3383985 1.2166691-.3385925 1.7490234 0l21.4052734 13.6552734c.9884687.634512 1.2508131 1.9711304.5537115 2.9316407z" fill="#012f49" fill-opacity="1" data-original-color="#000000ff" stroke="none" stroke-opacity="1"/><path d="m23.1563072 15.9101563c-1.9794922.4423828-3.3339844 2.1953125-3.2949219 4.2617188.0673828 3.5185547 3.6386719 6.1416016 5.7617188 7.3916016.8357258.4926186 1.8946896.5099182 2.7597656 0 2.0986328-1.2353516 5.6367188-3.828125 5.7548828-7.3154297.0703125-2.0673828-1.2578125-3.8447266-3.2304688-4.3222656-1.4111328-.3398438-2.8554688.03125-3.9042969.9902344-1.0312499-.9414064-2.455078-1.3154299-3.8466796-1.0058595zm7.3876953 1.5214843c1.25.3017578 2.0917969 1.4384766 2.046875 2.7636719-.0976563 2.8496094-3.5244141 5.1689453-4.9931641 6.0341797-.3671875.2148438-.8222656.2148438-1.1894531 0-1.484375-.875-4.9433594-3.2177734-4.9980469-6.0869141-.0253906-1.3222656.8310547-2.4414063 2.0839844-2.7207031.9795208-.2181664 1.8888016.0723419 2.5322266.7011719.5380859.53125 1.4130859.5302734 1.9511719.0019531.6708984-.6591797 1.6298828-.9179687 2.5664062-.6933594z" fill="#012f49" fill-opacity="1" data-original-color="#000000ff" stroke="none" stroke-opacity="1"/><path d="m30.0137291 31.9902344v4.7587891c0 1.5654297 1.2734375 2.8388672 2.8388672 2.8388672h5.8251953c1.5654297 0 2.8388672-1.2734375 2.8388672-2.8388672v-4.7587891c0-1.5654297-1.2734375-2.8388672-2.8388672-2.8388672h-5.8251953c-1.5654297 0-2.8388672 1.2734375-2.8388672 2.8388672zm2.8388672-1.2900391h2.1376953v2.8945313h-3.4277344v-1.6044922c0-.7119141.578125-1.2900391 1.2900391-1.2900391zm-1.2900391 6.0488281v-1.6054688h3.4277344v2.8955078h-2.1376953c-.7119141.0000001-1.2900391-.5781249-1.2900391-1.290039zm7.1152344 1.2900391h-2.1386719v-2.8955078h3.4287109v1.6054688c.0000001.711914-.5781249 1.290039-1.290039 1.290039zm1.2900391-6.0488281v1.6044922h-3.4287109v-2.8945313h2.1386719c.711914 0 1.290039.578125 1.290039 1.2900391z" fill="#012f49" fill-opacity="1" data-original-color="#000000ff" stroke="none" stroke-opacity="1"/><path d="m24.0703697 37.4130859c-.4277344 0-.7744141.3466797-.7744141.7744141v.6582031c0 .4277344.3466797.7744141.7744141.7744141s.7744141-.3466797.7744141-.7744141v-.6582031c0-.4277344-.3466797-.7744141-.7744141-.7744141z" fill="#012f49" fill-opacity="1" data-original-color="#000000ff" stroke="none" stroke-opacity="1"/></g></g></svg>