<svg clip-rule="evenodd" fill-rule="evenodd" height="300" image-rendering="optimizeQuality" shape-rendering="geometricPrecision" text-rendering="geometricPrecision" viewBox="0 0 43.3492 43.3492" width="300" xmlns="http://www.w3.org/2000/svg" version="1.1" xmlns:xlink="http://www.w3.org/1999/xlink" xmlns:svgjs="http://svgjs.dev/svgjs"><g width="100%" height="100%" transform="matrix(1,0,0,1,0,0)"><g id="Layer_x0020_1"><g id="_342289000"><path id="_342290008" d="m2.2105 29.9332c-.3716 0-.6743.3018-.6743.6734v5.2772c0 .3717.3027.6744.6743.6744h39.5179c.3717 0 .6743-.3027.6743-.6743l.0001-5.2773c0-.3717-.3027-.6733-.6744-.6733l-39.5179-.0001zm39.5179 7.5714h-39.5179c-.8931 0-1.6207-.7275-1.6207-1.6207v-5.2773c0-.8932.7275-1.6197 1.6207-1.6197l39.5179-.0001c.8943 0 1.6208.7266 1.6208 1.6198v5.2772c0 .8933-.7266 1.6208-1.6208 1.6208z" fill="#012f49" fill-opacity="1" data-original-color="#000000ff" stroke="none" stroke-opacity="1"/><path id="_342288808" d="m17.7831 29.9332c-.2612 0-.4733-.2119-.4733-.4731l.0001-8.023c0-.2612.2119-.4731.4731-.4731.2614-.0001.4733.2119.4733.4732v8.0228c0 .2613-.212.4733-.4732.4732zm-15.6012 0c-.2612 0-.4732-.2119-.4732-.4731l.0001-3.8429c0-.2613.2119-.4732.4731-.4732.2613 0 .4732.212.4732.4732l.0001 3.8428c0 .2613-.212.4733-.4733.4732z" fill="#012f49" fill-opacity="1" data-original-color="#000000ff" stroke="none" stroke-opacity="1"/><path id="_342288688" d="m17.7821 27.3257c-.209 0-.3993-.14-.4565-.351-.068-.2524.0818-.5126.3352-.5796l20.7079-5.5494-1.2313-4.5951c-.0681-.2524.0817-.5116.3341-.5797.2525-.067.5117.0828.5797.3352l1.3536 5.0525c.0326.1213.0157.2504-.0473.3589-.0621.1084-.1657.1883-.2869.2208l-21.1653 5.6706c-.0414.0108-.0818.0168-.1232.0168z" fill="#012f49" fill-opacity="1" data-original-color="#000000ff" stroke="none" stroke-opacity="1"/><path id="_342289312" d="m32.4792 20.5469c-.209 0-.4003-.1399-.4565-.3509-.068-.2524.0818-.5116.3342-.5797l2.1305-.5708c.2534-.067.5126.0818.5796.3352.068.2523-.0818.5117-.3342.5787l-2.1304.5708c-.0413.0118-.0829.0168-.1232.0167z" fill="#012f49" fill-opacity="1" data-original-color="#000000ff" stroke="none" stroke-opacity="1"/><path id="_342289240" d="m39.0331 32.7892h-8.1451c-.2612 0-.4732-.2119-.4732-.4731v-2.8561c0-.2612.2119-.4731.4732-.4731.2613-.0001.4732.2119.4732.4732l.0001 2.3828h7.1986v-2.3829c0-.2612.2119-.4731.4732-.4731.2613-.0001.4732.2119.4732.4732l.0001 2.856c0 .2612-.212.4732-.4733.4731z" fill="#012f49" fill-opacity="1" data-original-color="#000000ff" stroke="none" stroke-opacity="1"/><path id="_342289288" d="m33.2511 6.7914c-.421 0-.8469.0542-1.2718.1685l-27.8118 7.4521c-1.116.2987-2.0516 1.0184-2.6333 2.0269-.5826 1.0085-.7384 2.1778-.4397 3.2938l1.4217 5.3048 36.7595-9.8496-1.2728-4.7509c-.5885-2.1945-2.581-3.6456-4.7518-3.6456zm-31.0692 19.299c-.0827 0-.1646-.0217-.2366-.0631-.1084-.0631-.1883-.1666-.2208-.2878l-1.5438-5.7614c-.3638-1.3605-.1745-2.785.5333-4.0124.7089-1.2274 1.8485-2.1038 3.208-2.4685l27.8119-7.4521c3.1232-.837 6.3459 1.0233 7.1829 4.1475l1.396 5.2072c.067.2524-.0829.5117-.3353.5797l-37.6732 10.0951c-.0405.0109-.0819.0158-.1224.0158z" fill="#012f49" fill-opacity="1" data-original-color="#000000ff" stroke="none" stroke-opacity="1"/><path id="_342289168" d="m22.7913 20.5676c-.2091 0-.4004-.1389-.4566-.3499l-.5944-2.2162c-.3943-1.4739.483-2.995 1.9569-3.3894l14.8479-3.9789c.2525-.067.5117.0818.5797.3343.067.2523-.0818.5126-.3352.5796l-14.8469 3.9789c-.9701.2602-1.5478 1.2599-1.2876 2.23l.5936 2.2162c.0671.2524-.0819.5117-.3353.5797-.0404.0108-.0818.0158-.1221.0157z" fill="#012f49" fill-opacity="1" data-original-color="#000000ff" stroke="none" stroke-opacity="1"/><path id="_342289072" d="m6.0504 16.574c-.6042.1616-1.1091.5491-1.4216 1.0913-.3124.5422-.3963 1.1732-.2336 1.7775.1617.6043.5491 1.1091 1.0903 1.4216.5423.3125 1.1732.3963 1.7775.2347.6044-.1628 1.1091-.5502 1.4226-1.0914.3125-.5422.3953-1.1731.2336-1.7775-.1616-.6043-.5491-1.1091-1.0913-1.4226-.5412-.3125-1.1732-.3953-1.7775-.2336zm.6015 5.5523c-.5699 0-1.1329-.1498-1.6396-.4417-.76-.4397-1.3043-1.1485-1.532-1.9973-.2267-.8478-.1104-1.7341.3283-2.4952.4398-.7611 1.1485-1.3052 1.9973-1.532h.0001c.8478-.2278 1.7341-.1104 2.4951.3283.7611.4387 1.3053 1.1485 1.532 1.9963.2278.8488.1114 1.7351-.3283 2.4962-.4386.7601-1.1485 1.3043-1.9963 1.532-.2839.0759-.5708.1134-.8566.1134z" fill="#012f49" fill-opacity="1" data-original-color="#000000ff" stroke="none" stroke-opacity="1"/></g></g></g></svg>