<svg height="300" viewBox="0 0 512 512" width="300" xmlns="http://www.w3.org/2000/svg" version="1.1" xmlns:xlink="http://www.w3.org/1999/xlink" xmlns:svgjs="http://svgjs.dev/svgjs"><g width="100%" height="100%" transform="matrix(1,0,0,1,0,0)"><path d="m17.066406 486.398438 206.046875.554687c4.140625 14.863281 17.738281 25.101563 33.167969 24.972656 15.429688-.132812 28.851562-10.597656 32.742188-25.527343h205.910156c9.425781 0 17.066406-7.640626 17.066406-17.066407v-324.265625c0-9.425781-7.640625-17.066406-17.066406-17.066406h-17.066406v-3.414062c-.027344-6.367188-3.566407-12.199219-9.199219-15.164063-3.644531-1.902344-12.800781-6.535156-25.863281-12.160156 1.042968-6.769531 1.207031-13.648438.492187-20.464844h17.503906c4.710938 0 8.53125-3.820313 8.53125-8.53125 0-4.714844-3.820312-8.535156-8.53125-8.535156h-21c-7.382812-23.644531-24.699219-42.902344-47.433593-52.738281-22.738282-9.832032-48.628907-9.273438-70.917969 1.539062h-130.898438c-22.289062-10.8125-48.179687-11.371094-70.917969-1.539062-22.734374 9.835937-40.050781 29.09375-47.433593 52.738281h-21c-4.710938 0-8.53125 3.820312-8.53125 8.535156 0 4.710937 3.820312 8.53125 8.53125 8.53125h17.503906c-.71875 6.820313-.550781 13.703125.492187 20.480469-13.027343 5.617187-22.183593 10.242187-25.828124 12.144531-5.648438 2.957031-9.199219 8.789063-9.234376 15.164063v3.414062h-17.066406c-9.425781 0-17.066406 7.640625-17.066406 17.066406v324.265625c0 9.425781 7.640625 17.066407 17.066406 17.066407zm221.578125-406.734376c-.214843-3.824218-.6875-7.636718-1.417969-11.398437h37.546876c-.734376 3.761719-1.214844 7.570313-1.433594 11.398437-6.859375 3.890626-12.78125 9.242188-17.339844 15.675782-4.566406-6.433594-10.492188-11.785156-17.355469-15.675782zm41.597657-28.464843h-48.484376c-4.171874-9.515625-10.042968-18.191407-17.324218-25.601563h83.132812c-7.28125 7.410156-13.152344 16.085938-17.324218 25.601563zm180.558593 73.386719v305.175781c-24.945312-12.203125-82.65625-37.230469-136.535156-37.230469-30.394531 0-48.640625 8.148438-59.730469 17.921875v-290.988281c.757813-7.472656 4.289063-14.386719 9.898438-19.386719 6.664062 38.101563 38.160156 66.933594 76.699218 70.21875 38.542969 3.285156 74.460938-19.800781 87.480469-56.222656 11.09375 4.863281 18.945313 8.804687 22.1875 10.511719zm-29.585937 310.613281h-164.503906c4.375-10.15625 17.601562-25.601563 57.554687-25.601563 37.871094 0 78.941406 13.875 106.949219 25.601563zm-10.582032-377.78125-75.785156 55.144531c-3.8125 2.773438-4.652344 8.113281-1.878906 11.925781s8.113281 4.652344 11.925781 1.878907l70.867188-51.582032c.578125 3.484375.882812 7.011719.90625 10.546875.050781 31.863281-21.960938 59.519531-53.027344 66.613281-31.066406 7.089844-62.902344-8.273437-76.679687-37.003906l66.429687-48.304687c3.8125-2.773438 4.660156-8.109375 1.886719-11.921875-2.769532-3.8125-8.109375-4.65625-11.921875-1.886719l-62.027344 45.117187c-6.425781-33.992187 13.609375-67.410156 46.617187-77.757812 33.007813-10.34375 68.535157 5.65625 82.664063 37.230469zm-267.03125-40.351563c26.875.039063 51.230469 15.832032 62.230469 40.351563l-75.78125 55.144531c-3.8125 2.773438-4.65625 8.113281-1.882812 11.925781 2.773437 3.8125 8.113281 4.652344 11.925781 1.878907l70.867188-51.582032c.578124 3.484375.882812 7.011719.90625 10.546875.054687 31.863281-21.960938 59.519531-53.027344 66.613281-31.066406 7.089844-62.902344-8.273437-76.679688-37.003906l66.433594-48.304687c3.8125-2.773438 4.65625-8.109375 1.882812-11.921875-2.769531-3.8125-8.105468-4.65625-11.917968-1.886719l-62.03125 45.117187c-3.835938-19.972656 1.464844-40.617187 14.445312-56.273437 12.984375-15.652344 32.289063-24.679687 52.628906-24.605469zm-80.214843 97.007813c13.015625 36.421875 48.933593 59.511719 87.476562 56.226562 38.539063-3.28125 70.035157-32.113281 76.703125-70.214843 5.574219 5.019531 9.101563 11.921874 9.898438 19.378906v290.988281c-11.089844-9.78125-29.335938-17.921875-59.730469-17.921875-53.878906 0-111.589844 25.027344-136.535156 37.230469v-305.175781c3.242187-1.707032 11.09375-5.648438 22.1875-10.511719zm171.914062 321.125h-164.515625c28.007813-11.726563 69.121094-25.601563 106.949219-25.601563 39.945313 0 53.179687 15.445313 57.566406 25.601563zm-228.234375-290.132813h17.066406v298.664063c0 .15625.078126.28125.085938.4375.0625.558593.171875 1.113281.332031 1.65625.121094.5625.296875 1.109375.53125 1.636719.03125.140624.074219.277343.125.410156.382813.691406.859375 1.324218 1.417969 1.886718l.078125.058594c.679687.644532 1.464844 1.171875 2.320313 1.5625.238281.109375.46875.203125.707031.296875.9375.363281 1.929687.5625 2.9375.589844h426.664062c.996094-.027344 1.980469-.226563 2.910157-.589844.25-.09375.480468-.1875.71875-.296875.855468-.390625 1.636718-.917968 2.320312-1.5625l.078125-.058594c.554687-.5625 1.03125-1.195312 1.414063-1.886718.050781-.132813.09375-.269532.128906-.410156.230468-.527344.40625-1.074219.527344-1.636719.164062-.542969.273437-1.097657.335937-1.65625 0-.15625.082031-.28125.082031-.4375v-298.664063h17.070313v324.265625h-205.894531c-7.855469.105469-14.660157 5.472657-16.589844 13.089844-2.0625 7.382813-8.796875 12.484375-16.460938 12.472656-7.667968-.011719-14.382812-5.132812-16.425781-12.523437-1.9375-7.59375-8.734375-12.941406-16.570313-13.039063h-205.910156zm0 0" fill="#012f49" fill-opacity="1" data-original-color="#000000ff" stroke="none" stroke-opacity="1"/><path d="m85.332031 238.933594c1.078125 0 2.148438-.203125 3.148438-.597656 31.488281-13.320313 65.097656-20.90625 99.253906-22.402344 8-.074219 15.984375.671875 23.832031 2.238281 3.015625.71875 6.1875-.253906 8.28125-2.542969 2.089844-2.289062 2.777344-5.53125 1.792969-8.472656-.988281-2.941406-3.492187-5.113281-6.539063-5.675781-9.007812-1.8125-18.179687-2.6875-27.367187-2.613281-36.3125 1.496093-72.058594 9.484374-105.550781 23.59375-3.8125 1.507812-6.015625 5.511718-5.242188 9.539062.769532 4.027344 4.292969 6.9375 8.390625 6.933594zm0 0" fill="#012f49" fill-opacity="1" data-original-color="#000000ff" stroke="none" stroke-opacity="1"/><path d="m85.332031 301.269531c1.078125-.003906 2.148438-.207031 3.148438-.605469 31.488281-13.320312 65.097656-20.902343 99.253906-22.402343 8-.074219 15.988281.679687 23.832031 2.253906 3.015625.71875 6.1875-.253906 8.28125-2.542969 2.089844-2.289062 2.777344-5.53125 1.792969-8.472656-.988281-2.9375-3.492187-5.113281-6.539063-5.675781-9.007812-1.828125-18.179687-2.707031-27.367187-2.628907-36.3125 1.492188-72.0625 9.488282-105.550781 23.601563-3.8125 1.507813-6.015625 5.515625-5.242188 9.539063.769532 4.027343 4.292969 6.9375 8.390625 6.933593zm0 0" fill="#012f49" fill-opacity="1" data-original-color="#000000ff" stroke="none" stroke-opacity="1"/><path d="m85.332031 366.933594c1.078125 0 2.148438-.203125 3.148438-.597656 31.488281-13.320313 65.097656-20.90625 99.253906-22.402344 8-.070313 15.984375.679687 23.832031 2.246094 2.984375.628906 6.078125-.378907 8.113282-2.644532 2.039062-2.269531 2.714843-5.453125 1.769531-8.351562-.945313-2.898438-3.367188-5.074219-6.347657-5.703125-9.007812-1.8125-18.179687-2.6875-27.367187-2.613281-36.3125 1.496093-72.058594 9.484374-105.550781 23.59375-3.8125 1.507812-6.015625 5.511718-5.242188 9.539062.769532 4.027344 4.292969 6.9375 8.390625 6.933594zm0 0" fill="#012f49" fill-opacity="1" data-original-color="#000000ff" stroke="none" stroke-opacity="1"/><path d="m296.898438 201.480469c-3.046876.5625-5.550782 2.734375-6.539063 5.675781-.984375 2.941406-.296875 6.183594 1.792969 8.472656 2.09375 2.289063 5.265625 3.261719 8.28125 2.542969 7.847656-1.566406 15.832031-2.3125 23.832031-2.238281 34.15625 1.496094 67.765625 9.082031 99.253906 22.402344 4.382813 1.738281 9.34375-.40625 11.082031-4.789063 1.738282-4.382813-.402343-9.34375-4.785156-11.085937-33.492187-14.109376-69.238281-22.097657-105.550781-23.59375-9.1875-.074219-18.359375.800781-27.367187 2.613281zm0 0" fill="#012f49" fill-opacity="1" data-original-color="#000000ff" stroke="none" stroke-opacity="1"/><path d="m429.816406 284.796875c-33.488281-14.113281-69.238281-22.109375-105.550781-23.601563-9.1875-.078124-18.359375.800782-27.367187 2.628907-3.046876.5625-5.550782 2.738281-6.539063 5.675781-.984375 2.941406-.296875 6.183594 1.792969 8.472656 2.09375 2.289063 5.265625 3.261719 8.28125 2.542969 7.84375-1.574219 15.832031-2.328125 23.832031-2.253906 34.15625 1.5 67.765625 9.082031 99.253906 22.402343 2.832031 1.125 6.050781.652344 8.441407-1.242187 2.390624-1.890625 3.59375-4.914063 3.148437-7.929687-.441406-3.015626-2.460937-5.570313-5.292969-6.695313zm0 0" fill="#012f49" fill-opacity="1" data-original-color="#000000ff" stroke="none" stroke-opacity="1"/><path d="m429.816406 350.460938c-33.492187-14.109376-69.238281-22.097657-105.550781-23.59375-9.1875-.074219-18.359375.800781-27.367187 2.613281-2.980469.628906-5.402344 2.804687-6.347657 5.703125-.945312 2.898437-.269531 6.082031 1.769531 8.351562 2.035157 2.265625 5.128907 3.273438 8.113282 2.644532 7.847656-1.566407 15.832031-2.316407 23.832031-2.246094 34.15625 1.496094 67.765625 9.082031 99.253906 22.402344 4.382813 1.738281 9.34375-.40625 11.082031-4.789063 1.738282-4.382813-.402343-9.34375-4.785156-11.085937zm0 0" fill="#012f49" fill-opacity="1" data-original-color="#000000ff" stroke="none" stroke-opacity="1"/></g></svg>