<svg viewBox="0 0 64 64" xmlns="http://www.w3.org/2000/svg" width="300" height="300" version="1.1" xmlns:xlink="http://www.w3.org/1999/xlink" xmlns:svgjs="http://svgjs.dev/svgjs"><g width="100%" height="100%" transform="matrix(1,0,0,1,0,0)"><g id="_25-headphone" fill="none" stroke="#000" stroke-linejoin="round" stroke-width="2" data-name="25-headphone"><path d="m38 50v-16a5 5 0 0 1 5-5 5 5 0 0 1 5 5v24a5 5 0 0 1 -5 5 5 5 0 0 1 -5-5v-2" fill="none" fill-opacity="1" stroke="#012f49" stroke-opacity="1" data-original-stroke-color="#000000ff" stroke-width="2" data-original-stroke-width="2"/><path d="m38 54v-2" fill="none" fill-opacity="1" stroke="#012f49" stroke-opacity="1" data-original-stroke-color="#000000ff" stroke-width="2" data-original-stroke-width="2"/><path d="m56 47v4.917c0 2.933-1.767 5.436-4.178 5.919l-.822.164v-23l.822.164a5.089 5.089 0 0 1 3.471 2.843" fill="none" fill-opacity="1" stroke="#012f49" stroke-opacity="1" data-original-stroke-color="#000000ff" stroke-width="2" data-original-stroke-width="2"/><path d="m47 32h2a2 2 0 0 1 2 2v24a2 2 0 0 1 -2 2h-2" fill="none" fill-opacity="1" stroke="#012f49" stroke-opacity="1" data-original-stroke-color="#000000ff" stroke-width="2" data-original-stroke-width="2"/><path d="m35 1c9.39 0 16.85 3.31 21 7l-1.08.86-2.78 2.22-1.14.92a23.214 23.214 0 0 0 -16-6" fill="none" fill-opacity="1" stroke="#012f49" stroke-opacity="1" data-original-stroke-color="#000000ff" stroke-width="2" data-original-stroke-width="2"/><path d="m54.92 8.86c7.76 7.65 8.08 18.14 8.08 18.14v8a8.7 8.7 0 0 1 -4.32 7.52l-3.749 2.187a2.613 2.613 0 0 1 -3.931-2.257 2.615 2.615 0 0 1 1.23-2.218l4.89-3.052a4.023 4.023 0 0 0 1.88-3.4v-6.78s-.7-7.664-5-13.683" fill="none" fill-opacity="1" stroke="#012f49" stroke-opacity="1" data-original-stroke-color="#000000ff" stroke-width="2" data-original-stroke-width="2"/><path d="m26 40v-2" fill="none" fill-opacity="1" stroke="#012f49" stroke-opacity="1" data-original-stroke-color="#000000ff" stroke-width="2" data-original-stroke-width="2"/><path d="m26 36v-2a5 5 0 0 0 -5-5 5 5 0 0 0 -5 5v24a5 5 0 0 0 5 5 5 5 0 0 0 5-5v-16" fill="none" fill-opacity="1" stroke="#012f49" stroke-opacity="1" data-original-stroke-color="#000000ff" stroke-width="2" data-original-stroke-width="2"/><path d="m8 47v4.917c0 2.933 1.767 5.436 4.178 5.919l.822.164v-23l-.822.164a5.089 5.089 0 0 0 -3.471 2.843" fill="none" fill-opacity="1" stroke="#012f49" stroke-opacity="1" data-original-stroke-color="#000000ff" stroke-width="2" data-original-stroke-width="2"/><path d="m17 32h-2a2 2 0 0 0 -2 2v24a2 2 0 0 0 2 2h2" fill="none" fill-opacity="1" stroke="#012f49" stroke-opacity="1" data-original-stroke-color="#000000ff" stroke-width="2" data-original-stroke-width="2"/><path d="m29 1c-9.39 0-16.85 3.31-21 7l1.08.86 2.78 2.22 1.14.92a23.214 23.214 0 0 1 16-6" fill="none" fill-opacity="1" stroke="#012f49" stroke-opacity="1" data-original-stroke-color="#000000ff" stroke-width="2" data-original-stroke-width="2"/><path d="m7.852 17a33.1 33.1 0 0 0 -2.852 10v6.78a4.023 4.023 0 0 0 1.88 3.4l4.89 3.052a2.615 2.615 0 0 1 1.23 2.218 2.613 2.613 0 0 1 -3.931 2.257l-3.749-2.187a8.7 8.7 0 0 1 -4.32-7.52v-8s.32-10.49 8.08-18.14" fill="none" fill-opacity="1" stroke="#012f49" stroke-opacity="1" data-original-stroke-color="#000000ff" stroke-width="2" data-original-stroke-width="2"/><path d="m10 13.316c-.393.55-.756 1.114-1.091 1.684" fill="none" fill-opacity="1" stroke="#012f49" stroke-opacity="1" data-original-stroke-color="#000000ff" stroke-width="2" data-original-stroke-width="2"/><path d="m35 1h-6" fill="none" fill-opacity="1" stroke="#012f49" stroke-opacity="1" data-original-stroke-color="#000000ff" stroke-width="2" data-original-stroke-width="2"/><path d="m35 6h-6" fill="none" fill-opacity="1" stroke="#012f49" stroke-opacity="1" data-original-stroke-color="#000000ff" stroke-width="2" data-original-stroke-width="2"/></g></g></svg>