<svg id="Layer_1" enable-background="new 0 0 64 64" viewBox="0 0 64 64" xmlns="http://www.w3.org/2000/svg" width="300" height="300" version="1.1" xmlns:xlink="http://www.w3.org/1999/xlink" xmlns:svgjs="http://svgjs.dev/svgjs"><g width="100%" height="100%" transform="matrix(1,0,0,1,0,0)"><g><path d="m48.731 23.715v-6.684c0-9.23-7.505-16.74-16.73-16.74s-16.73 7.509-16.73 16.74v6.684c-3.02.811-5.254 3.565-5.254 6.838v11.173c0 12.122 9.862 21.983 21.984 21.983 5.872 0 11.394-2.287 15.545-6.438 4.152-4.152 6.439-9.673 6.438-15.545v-11.174c0-3.273-2.233-6.026-5.253-6.837zm-30.461-6.684c0-7.576 6.159-13.74 13.73-13.74s13.73 6.164 13.73 13.74v6.435h-5.62v-5.345c0-4.483-3.639-8.13-8.11-8.13-4.478 0-8.12 3.647-8.12 8.13v5.345h-5.61zm18.841 1.09v5.345h-10.231v-5.345c0-2.829 2.297-5.13 5.12-5.13 2.818 0 5.111 2.301 5.111 5.13zm13.873 23.605c0 5.07-1.974 9.838-5.56 13.423-3.585 3.586-8.353 5.561-13.424 5.561-10.468 0-18.984-8.516-18.984-18.983v-11.175c0-2.253 1.833-4.086 4.086-4.086h29.795c2.253 0 4.086 1.833 4.086 4.086v11.174z" fill="#012f49" fill-opacity="1" data-original-color="#000000ff" stroke="none" stroke-opacity="1"/><path d="m25.566 40.867c-.246-.269-.531-.503-.847-.695-.299-.183-.604-.346-.916-.49-.302-.139-.598-.271-.886-.395-.27-.116-.512-.24-.721-.37-.187-.116-.334-.246-.439-.388-.086-.115-.128-.251-.128-.417 0-.117.021-.229.063-.332.038-.094.094-.173.172-.239.085-.073.197-.133.333-.178.339-.112.892-.087 1.291.028.243.072.458.151.644.238.189.09.348.171.479.248.438.255.696.203.893.021.091-.083.155-.194.196-.344.025-.094.043-.211.055-.354.009-.123.014-.272.014-.449 0-.157-.003-.288-.009-.396-.007-.124-.021-.226-.039-.311-.021-.098-.049-.178-.082-.245-.039-.078-.099-.155-.188-.245-.09-.089-.234-.18-.454-.286-.194-.094-.416-.178-.667-.254-.245-.073-.509-.132-.791-.175-.834-.127-1.662-.066-2.402.148-.501.146-.944.368-1.317.664-.378.301-.682.683-.904 1.136-.222.455-.335.983-.335 1.572 0 .512.079.963.235 1.34.154.372.358.699.606.973.243.268.523.502.832.694.292.182.598.348.911.492.3.139.592.269.876.395.262.114.499.238.702.368.183.116.331.248.441.393.087.114.13.253.13.423 0 .163-.029.311-.087.438-.057.125-.135.226-.24.309-.115.091-.26.163-.432.215-.473.143-1.17.093-1.63-.044-.296-.088-.552-.186-.76-.289-.215-.108-.391-.206-.528-.294-.397-.257-.686-.25-.913-.085-.106.077-.187.191-.239.341-.036.104-.061.229-.075.38-.013.13-.02.291-.02.483 0 .295.019.521.057.689.047.209.134.379.261.506.098.099.243.202.442.317.191.109.418.21.696.308.268.095.579.177.928.243.355.067.739.102 1.141.102.6 0 1.174-.08 1.708-.239.542-.162 1.024-.408 1.434-.732.416-.33.749-.745.989-1.234.243-.491.366-1.065.366-1.706 0-.495-.079-.936-.235-1.311-.152-.365-.358-.691-.611-.967z" fill="#012f49" fill-opacity="1" data-original-color="#000000ff" stroke="none" stroke-opacity="1"/><path d="m35.341 40.867c-.244-.268-.529-.502-.848-.695-.3-.183-.604-.347-.915-.49-.302-.139-.598-.271-.886-.395-.27-.116-.512-.24-.721-.37-.187-.116-.334-.246-.439-.388-.086-.115-.128-.251-.128-.417 0-.117.021-.229.063-.332.038-.094.094-.173.172-.239.085-.073.197-.133.333-.178.339-.112.891-.087 1.291.028.244.072.458.15.643.238.189.089.349.17.48.249.501.288.754.144.895.019.088-.08.15-.189.195-.344.023-.092.041-.208.054-.354.009-.122.013-.271.013-.447 0-.158-.002-.289-.009-.396-.007-.127-.021-.23-.038-.306-.02-.094-.047-.177-.081-.246-.037-.077-.097-.155-.191-.252-.092-.089-.235-.179-.451-.283-.193-.094-.415-.178-.667-.254-.244-.073-.51-.132-.791-.175-.834-.127-1.662-.066-2.402.148-.501.146-.944.368-1.317.664-.378.301-.682.683-.904 1.136-.222.455-.335.983-.335 1.572 0 .512.079.963.235 1.34.154.372.358.699.606.973.243.268.523.502.832.694.292.182.598.348.911.492.3.139.592.269.876.395.263.115.5.239.702.368.184.117.332.249.441.394.088.113.13.251.13.422 0 .162-.029.311-.088.439-.057.125-.134.225-.238.307-.115.092-.26.164-.431.216-.476.143-1.171.093-1.631-.044-.296-.088-.552-.186-.76-.289-.215-.108-.391-.206-.528-.294-.397-.257-.686-.25-.913-.085-.106.077-.187.191-.239.341-.036.104-.061.229-.075.38-.013.13-.02.291-.02.483 0 .295.019.521.057.689.047.209.134.379.261.506.098.099.243.202.442.317.191.109.418.21.696.308.268.095.579.177.928.243.355.067.739.102 1.141.102.599 0 1.173-.08 1.708-.239.543-.163 1.025-.409 1.435-.733.417-.332.749-.747.987-1.232.244-.492.367-1.066.367-1.707 0-.491-.079-.932-.235-1.31-.153-.366-.359-.692-.613-.969z" fill="#012f49" fill-opacity="1" data-original-color="#000000ff" stroke="none" stroke-opacity="1"/><path d="m45.495 44.682c-.054-.136-.132-.242-.235-.32-.106-.077-.235-.118-.371-.118h-3.127v-8.584c0-.146-.05-.282-.14-.391-.083-.104-.204-.181-.355-.23-.108-.037-.245-.065-.422-.087-.306-.037-.861-.038-1.186 0-.18.021-.314.049-.421.085-.155.052-.276.129-.356.229-.093.112-.143.249-.143.395v10.111c0 .364.109.644.323.829.198.172.441.26.724.26h5.103c.142 0 .274-.046.384-.133.099-.079.175-.191.225-.329.041-.106.069-.231.086-.379.017-.131.025-.29.025-.48 0-.191-.009-.352-.025-.478-.019-.155-.048-.28-.089-.38z" fill="#012f49" fill-opacity="1" data-original-color="#000000ff" stroke="none" stroke-opacity="1"/></g></g></svg>