<svg id="Line_Exapnd" height="300" viewBox="0 0 64 64" width="300" xmlns="http://www.w3.org/2000/svg" data-name="Line Exapnd" version="1.1" xmlns:xlink="http://www.w3.org/1999/xlink" xmlns:svgjs="http://svgjs.dev/svgjs"><g width="100%" height="100%" transform="matrix(1,0,0,1,0,0)"><path d="m11.5 42.016a3 3 0 1 0 -3-3 3 3 0 0 0 3 3zm0-4a1 1 0 1 1 -1 1 1 1 0 0 1 1-1z" fill="#012f49" fill-opacity="1" data-original-color="#000000ff" stroke="none" stroke-opacity="1"/><path d="m61.5 45.016h-1v-3a1 1 0 0 0 -1-1h-40.439l.51-4.59 35.764-6.306.173.984a1 1 0 0 0 1.159.812 1 1 0 0 0 .811-1.159l-.174-.984.985-.174a1 1 0 0 0 .811-1.158l-.521-2.954 1.969-.348a1 1 0 0 0 .812-1.158l-1.56-8.864a5 5 0 0 0 -5.792-4.055l-9.679 1.706a7 7 0 0 0 -4.132 2.376l-3.4 4.03-31.165 5.494a5 5 0 0 0 -4.056 5.792l.695 3.94a1 1 0 0 0 1.159.811l1.07-.189v9.995h-1a1 1 0 0 0 -1 1v3a4 4 0 0 0 4 4h52a4 4 0 0 0 4-4v-3a1 1 0 0 0 -1-1.001zm-3-2v2h-39.883l.222-2zm-38.7-8.662.231-2.071 36.577-6.449.348 1.969zm-15.733-1.287-.521-2.954a3 3 0 0 1 2.434-3.475l31.514-5.558a1 1 0 0 0 .59-.339l3.638-4.306a5 5 0 0 1 2.951-1.7l9.679-1.706a3 3 0 0 1 3.476 2.433l1.389 7.879zm13.913-.422-1.375 12.371h-10.105v-10.347zm42.52 16.371a2 2 0 0 1 -2 2h-52a2 2 0 0 1 -2-2v-2h56z" fill="#012f49" fill-opacity="1" data-original-color="#000000ff" stroke="none" stroke-opacity="1"/></g></svg>