<svg version="1.1" id="Layer_1" xmlns="http://www.w3.org/2000/svg" xmlns:xlink="http://www.w3.org/1999/xlink" x="0px" y="0px" viewBox="0 0 511.999 511.999" style="enable-background:new 0 0 511.999 511.999;" xml:space="preserve" width="300" height="300" xmlns:svgjs="http://svgjs.dev/svgjs"><g width="100%" height="100%" transform="matrix(1,0,0,1,0,0)"><g>
	<g>
		<path d="M502.462,362.222c-2.442-2.872-6.268-4.164-9.952-3.361l-53.542,11.709l-196.156-77.827l-23.653-33.65l22.385-33.966&#10;&#9;&#9;&#9;l193.736-83.671l53.869,10.098c3.703,0.694,7.492-0.711,9.846-3.657c2.354-2.946,2.89-6.95,1.395-10.411L443.672,6.156&#10;&#9;&#9;&#9;c-1.072-2.483-3.087-4.44-5.601-5.436c-2.515-0.998-5.322-0.957-7.805,0.116L13.266,180.93c-2.484,1.073-4.439,3.087-5.436,5.602&#10;&#9;&#9;&#9;c-0.997,2.514-0.956,5.322,0.116,7.804l18.632,43.138c1.664,3.853,5.421,6.158,9.368,6.158c1.349,0,2.721-0.27,4.039-0.838&#10;&#9;&#9;&#9;l5.874-2.536c-4.731,13.576-4.86,28.789,0.614,43.111l-5.661-2.246c-2.515-0.998-5.322-0.957-7.805,0.116&#10;&#9;&#9;&#9;c-2.484,1.073-4.439,3.087-5.436,5.602l-17.329,43.677c-2.078,5.235,0.483,11.163,5.719,13.24l422.209,167.518&#10;&#9;&#9;&#9;c1.234,0.49,2.507,0.722,3.758,0.722c4.058,0,7.896-2.44,9.483-6.44l52.758-132.973&#10;&#9;&#9;&#9;C505.559,369.082,504.903,365.096,502.462,362.222z M447.62,66.745l26.443,61.228l-38.088-7.14&#10;&#9;&#9;&#9;c-1.997-0.374-4.058-0.145-5.923,0.661L230.66,207.608c-1.825,0.787-3.379,2.092-4.472,3.751l-40.24,61.056L122.12,299.98&#10;&#9;&#9;&#9;c-21.53,9.3-46.612-0.654-55.911-22.183c-9.294-21.521,0.646-46.59,22.157-55.898L447.62,66.745z M41.26,220.024l-10.543-24.412&#10;&#9;&#9;&#9;L428.99,23.607l10.543,24.411L41.26,220.024z M436.212,488.555L32.963,328.56l9.806-24.716L446.018,463.84L436.212,488.555z&#10;&#9;&#9;&#9; M453.54,444.878L132.762,317.605l64.072-27.671c1.825-0.787,3.379-2.092,4.472-3.751l5.788-8.782l20.781,29.564&#10;&#9;&#9;&#9;c1.143,1.626,2.735,2.881,4.582,3.615l201.883,80.1c1.888,0.749,3.956,0.916,5.94,0.484l37.856-8.279L453.54,444.878z" fill="#012f49" fill-opacity="1" data-original-color="#000000ff" stroke="none" stroke-opacity="1"/>
	</g>
</g><g>
	<g>
		<path d="M447.527,86.729c-2.234-5.172-8.237-7.552-13.408-5.32l-7.084,3.06c-5.171,2.234-7.552,8.236-5.319,13.408&#10;&#9;&#9;&#9;c1.666,3.853,5.422,6.158,9.369,6.158c1.349,0,2.721-0.27,4.039-0.838l7.084-3.06C447.38,97.903,449.761,91.901,447.527,86.729z" fill="#012f49" fill-opacity="1" data-original-color="#000000ff" stroke="none" stroke-opacity="1"/>
	</g>
</g><g>
	<g>
		<path d="M409.171,103.295c-2.234-5.171-8.237-7.551-13.408-5.32l-103.011,44.489c-5.171,2.234-7.552,8.236-5.32,13.408&#10;&#9;&#9;&#9;c1.664,3.853,5.422,6.158,9.369,6.158c1.349,0,2.721-0.27,4.039-0.838l103.011-44.489&#10;&#9;&#9;&#9;C409.022,114.47,411.403,108.467,409.171,103.295z" fill="#012f49" fill-opacity="1" data-original-color="#000000ff" stroke="none" stroke-opacity="1"/>
	</g>
</g><g>
	<g>
		<path d="M114.657,236.572c-13.113-5.205-28.019,1.233-33.222,14.347c-2.521,6.353-2.417,13.308,0.293,19.583&#10;&#9;&#9;&#9;c2.71,6.276,7.701,11.119,14.055,13.639c3.086,1.225,6.27,1.805,9.406,1.805c10.186,0,19.837-6.125,23.816-16.153&#10;&#9;&#9;&#9;C134.208,256.681,127.772,241.777,114.657,236.572z M110.046,262.271c-1.056,2.659-4.077,3.966-6.74,2.911&#10;&#9;&#9;&#9;c-1.739-0.69-2.532-2.03-2.851-2.767c-0.319-0.736-0.751-2.233-0.06-3.973c0.808-2.034,2.765-3.276,4.831-3.276&#10;&#9;&#9;&#9;c0.635,0,1.281,0.117,1.907,0.365C109.795,256.587,111.101,259.611,110.046,262.271z" fill="#012f49" fill-opacity="1" data-original-color="#000000ff" stroke="none" stroke-opacity="1"/>
	</g>
</g><g>
</g><g>
</g><g>
</g><g>
</g><g>
</g><g>
</g><g>
</g><g>
</g><g>
</g><g>
</g><g>
</g><g>
</g><g>
</g><g>
</g><g>
</g></g></svg>