<svg version="1.1" id="svg2487" xml:space="preserve" width="300" height="300" viewBox="0 0 682.66669 682.66669" xmlns="http://www.w3.org/2000/svg" xmlns:svg="http://www.w3.org/2000/svg" xmlns:xlink="http://www.w3.org/1999/xlink" xmlns:svgjs="http://svgjs.dev/svgjs"><g width="100%" height="100%" transform="matrix(1,0,0,1,0,0)"><defs id="defs2491"><clipPath clipPathUnits="userSpaceOnUse" id="clipPath2501"><path d="M 0,512 H 512 V 0 H 0 Z" id="path2499" fill="#012f49" fill-opacity="1" data-original-color="#000000ff" stroke="none" stroke-opacity="1"/></clipPath></defs><g id="g2493" transform="matrix(1.3333333,0,0,-1.3333333,0,682.66667)"><g id="g2495"><g id="g2497" clip-path="url(#clipPath2501)"><g id="g2503" transform="translate(448.8555,135.3203)"><path d="m 0,0 h 3.084 c 10.377,0 18.819,8.45 18.819,18.837 v 83.817 c 0,43.918 -13.07,85.825 -37.368,121.271" style="stroke-linecap: round; stroke-linejoin: round; stroke-miterlimit: 10; stroke-dasharray: none;" id="path2505" fill="none" fill-opacity="1" stroke="#012f49" stroke-opacity="1" data-original-stroke-color="#000000ff" stroke-width="10" data-original-stroke-width="15"/></g><g id="g2507" transform="translate(458.0332,379.0479)"><path d="m 0,0 c 28.755,-41.068 44.242,-89.879 44.242,-141.073 v -83.818 c 0,-27.78 -22.581,-50.38 -50.336,-50.38 h -3.179" style="stroke-linecap: round; stroke-linejoin: round; stroke-miterlimit: 10; stroke-dasharray: none;" id="path2509" fill="none" fill-opacity="1" stroke="#012f49" stroke-opacity="1" data-original-stroke-color="#000000ff" stroke-width="10" data-original-stroke-width="15"/></g><g id="g2511" transform="translate(63.2402,103.7764)"><path d="m 0,0 h -3.18 c -27.755,0 -50.336,22.601 -50.336,50.381 v 83.817 c 0,51.196 15.488,100.007 44.245,141.075" style="stroke-linecap: round; stroke-linejoin: round; stroke-miterlimit: 10; stroke-dasharray: none;" id="path2513" fill="none" fill-opacity="1" stroke="#012f49" stroke-opacity="1" data-original-stroke-color="#000000ff" stroke-width="10" data-original-stroke-width="15"/></g><g id="g2515" transform="translate(78.6143,359.252)"><path d="m 0,0 c -24.302,-35.447 -37.373,-77.356 -37.373,-121.277 v -83.818 c 0,-10.386 8.442,-18.837 18.819,-18.837 h 3.18" style="stroke-linecap: round; stroke-linejoin: round; stroke-miterlimit: 10; stroke-dasharray: none;" id="path2517" fill="none" fill-opacity="1" stroke="#012f49" stroke-opacity="1" data-original-stroke-color="#000000ff" stroke-width="10" data-original-stroke-width="15"/></g><g id="g2519" transform="translate(272.9893,504.2207)"><path d="m 0,0 c 31.821,-1.987 62.62,-9.575 91.772,-22.631 33.126,-14.835 62.449,-35.941 87.151,-62.732 13.491,-14.632 12.576,-37.44 -2.042,-50.943 -6.925,-6.395 -15.685,-9.557 -24.419,-9.557 -9.704,0 -19.377,3.901 -26.479,11.601 -18.048,19.577 -39.459,34.991 -63.63,45.818 -24.999,11.195 -51.693,16.871 -79.343,16.871 -27.65,0 -54.344,-5.676 -79.341,-16.87 -24.173,-10.827 -45.582,-26.241 -63.632,-45.816 -13.49,-14.633 -36.28,-15.547 -50.896,-2.043 -14.619,13.503 -15.534,36.31 -2.041,50.942 24.702,26.79 54.023,47.895 87.148,62.729 28.852,12.921 59.314,20.486 90.783,22.568" style="stroke-linecap: round; stroke-linejoin: round; stroke-miterlimit: 10; stroke-dasharray: none;" id="path2521" fill="none" fill-opacity="1" stroke="#012f49" stroke-opacity="1" data-original-stroke-color="#000000ff" stroke-width="10" data-original-stroke-width="15"/></g><g id="g2523" transform="translate(178.9209,31.4238)"><path d="M 0,0 H 6.427 C 21.347,0 33.44,12.105 33.44,27.038 v 122.896 c 0,14.932 -12.093,27.038 -27.013,27.038 H 0" style="stroke-linecap: round; stroke-linejoin: round; stroke-miterlimit: 10; stroke-dasharray: none;" id="path2525" fill="none" fill-opacity="1" stroke="#012f49" stroke-opacity="1" data-original-stroke-color="#000000ff" stroke-width="10" data-original-stroke-width="15"/></g><g id="g2527" transform="translate(299.6387,78.1807)"><path d="M 0,0 V -19.719 C 0,-34.651 12.094,-46.757 27.014,-46.757 H 33.44" style="stroke-linecap: round; stroke-linejoin: round; stroke-miterlimit: 10; stroke-dasharray: none;" id="path2529" fill="none" fill-opacity="1" stroke="#012f49" stroke-opacity="1" data-original-stroke-color="#000000ff" stroke-width="10" data-original-stroke-width="15"/></g><g id="g2531" transform="translate(333.0791,208.3955)"><path d="M 0,0 H -6.427 C -21.347,0 -33.44,-12.105 -33.44,-27.038 V -95.18" style="stroke-linecap: round; stroke-linejoin: round; stroke-miterlimit: 10; stroke-dasharray: none;" id="path2533" fill="none" fill-opacity="1" stroke="#012f49" stroke-opacity="1" data-original-stroke-color="#000000ff" stroke-width="10" data-original-stroke-width="15"/></g><g id="g2535" transform="translate(62.1348,119.9102)"><path d="m 0,0 c 0,-51.76 33.53,-95.681 80.036,-111.189 18.215,-6.075 37.032,7.452 37.032,26.668 V 84.521 c 0,19.215 -18.817,32.743 -37.032,26.668 C 33.53,95.68 0,51.759 0,0 Z" style="stroke-linecap: round; stroke-linejoin: round; stroke-miterlimit: 10; stroke-dasharray: none;" id="path2537" fill="none" fill-opacity="1" stroke="#012f49" stroke-opacity="1" data-original-stroke-color="#000000ff" stroke-width="10" data-original-stroke-width="15"/></g><g id="g2539" transform="translate(449.8652,119.9102)"><path d="m 0,0 c 0,-51.76 -33.53,-95.681 -80.036,-111.189 -18.215,-6.075 -37.032,7.452 -37.032,26.668 V 84.521 c 0,19.215 18.817,32.743 37.032,26.668 C -33.53,95.68 0,51.759 0,0 Z" style="stroke-linecap: round; stroke-linejoin: round; stroke-miterlimit: 10; stroke-dasharray: none;" id="path2541" fill="none" fill-opacity="1" stroke="#012f49" stroke-opacity="1" data-original-stroke-color="#000000ff" stroke-width="10" data-original-stroke-width="15"/></g></g></g></g></g></svg>